<?xml version="1.0" standalone="no"?>
<!DOCTYPE svg PUBLIC "-//W3C//DTD SVG 20010904//EN"
 "http://www.w3.org/TR/2001/REC-SVG-20010904/DTD/svg10.dtd">
<svg version="1.0" xmlns="http://www.w3.org/2000/svg"
 width="200.000000pt" height="200.000000pt" viewBox="0 0 200.000000 200.000000"
 preserveAspectRatio="xMidYMid meet">
<metadata>
Created by potrace 1.16, written by Peter Selinger 2001-2019
</metadata>
<g transform="translate(0.000000,200.000000) scale(0.100000,-0.100000)"
fill="#000000" stroke="none">
<path d="M865 1579 c-16 -5 -36 -16 -42 -26 -20 -27 -16 -80 8 -102 23 -21 23
-19 -6 -133 -20 -77 -33 -84 -80 -40 -16 15 -46 39 -66 54 -31 23 -37 34 -37
63 0 20 -6 43 -13 51 -47 57 -139 21 -139 -55 0 -17 28 -53 53 -68 9 -5 17
-35 21 -79 7 -69 6 -72 -19 -88 -25 -16 -27 -16 -103 30 -43 26 -83 56 -88 68
-19 45 -86 18 -68 -28 6 -17 39 -30 53 -22 9 6 26 -2 116 -54 37 -21 51 -35
53 -54 3 -23 -3 -29 -45 -47 -26 -11 -66 -28 -87 -39 -27 -13 -44 -16 -56 -10
-27 14 -55 -21 -40 -49 14 -27 46 -27 62 0 15 25 132 82 168 82 14 0 40 -6 57
-14 30 -12 35 -11 60 7 23 18 28 29 28 65 0 38 -4 46 -32 64 -33 20 -33 20
-30 94 3 105 14 109 105 36 45 -36 72 -65 72 -77 0 -11 9 -22 20 -25 11 -3 39
-39 66 -85 44 -75 46 -82 35 -113 -16 -44 -5 -82 28 -99 52 -28 115 7 113 62
0 18 6 31 19 37 10 6 74 39 142 74 67 35 134 65 150 67 18 3 45 -8 82 -31 30
-19 58 -35 64 -35 5 0 12 -6 14 -12 4 -9 6 -8 6 2 1 8 -28 33 -63 54 -85 52
-89 72 -23 121 31 23 56 35 68 32 10 -3 22 0 26 5 3 6 1 8 -4 5 -12 -8 -10 55
2 86 10 24 -10 22 -36 -4 -14 -14 -19 -29 -16 -47 5 -27 2 -32 -56 -75 -61
-46 -86 -44 -139 11 -41 43 -45 51 -41 87 4 36 10 45 51 70 26 16 49 32 52 36
3 4 16 9 30 10 17 3 25 10 25 24 0 27 -33 32 -43 7 -4 -11 -31 -36 -61 -56
-51 -34 -81 -40 -81 -16 0 14 -87 13 -92 -2 -7 -19 -142 84 -148 113 -11 55
-47 81 -95 68z m155 -161 c52 -38 59 -47 59 -77 1 -19 8 -42 16 -51 14 -16 10
-29 -48 -141 -59 -114 -67 -124 -94 -127 -22 -2 -32 2 -37 15 -3 10 -22 47
-42 82 -40 73 -48 146 -21 216 8 22 18 51 21 65 5 22 49 54 80 59 4 0 34 -18
66 -41z m240 -195 c28 -26 50 -52 50 -58 0 -13 -20 -25 -169 -102 -67 -36
-126 -62 -129 -59 -3 3 23 62 59 130 58 114 66 125 94 129 16 2 33 5 38 5 4 1
30 -19 57 -45z"/>
<path d="M880 660 l0 -130 30 0 30 0 0 130 0 130 -30 0 -30 0 0 -130z"/>
<path d="M510 741 c0 -10 -7 -21 -15 -25 -8 -3 -15 -15 -15 -26 0 -11 7 -20
15 -20 11 0 15 -13 15 -53 0 -41 5 -58 19 -71 19 -17 84 -26 96 -14 11 11 -7
37 -28 40 -19 3 -22 11 -25 51 -3 45 -2 47 23 47 22 0 26 4 23 23 -2 14 -11
23 -25 25 -15 2 -23 10 -23 23 0 14 -7 19 -30 19 -23 0 -30 -5 -30 -19z"/>
<path d="M250 625 l0 -95 30 0 c29 0 30 1 30 51 0 61 13 89 43 89 36 0 47 -19
47 -82 0 -55 1 -58 25 -58 24 0 25 2 25 73 0 60 -4 77 -20 95 -22 24 -68 29
-101 12 -13 -7 -19 -7 -19 0 0 5 -13 10 -30 10 l-30 0 0 -95z"/>
<path d="M693 710 c-25 -10 -53 -58 -53 -92 0 -13 12 -39 28 -57 24 -29 33
-33 79 -34 57 -1 90 17 73 38 -7 9 -25 11 -50 8 -38 -5 -70 8 -70 28 0 5 34 9
76 9 65 0 75 2 70 16 -3 9 -6 21 -6 27 0 7 -11 25 -25 40 -27 29 -76 35 -122
17z"/>
<path d="M999 699 c-13 -13 -19 -30 -17 -47 2 -23 11 -30 53 -43 27 -10 51
-21 53 -27 5 -16 -25 -22 -60 -11 -27 7 -35 6 -46 -8 -17 -23 3 -34 67 -35 59
-2 101 22 101 56 0 30 -19 45 -64 53 -45 7 -66 29 -36 38 11 4 33 4 49 0 22
-5 30 -2 35 11 9 24 -10 34 -66 34 -35 0 -54 -6 -69 -21z"/>
<path d="M1187 713 c-4 -3 -7 -46 -7 -95 l0 -88 30 0 c30 0 30 0 30 58 0 63
11 82 47 82 30 0 43 -28 43 -89 0 -48 2 -51 25 -51 24 0 25 2 25 73 0 60 -4
77 -20 95 -23 25 -87 31 -108 10 -9 -9 -12 -9 -12 0 0 13 -42 17 -53 5z"/>
<path d="M1447 709 c-13 -8 -15 -14 -7 -29 9 -16 15 -17 39 -9 21 7 36 7 50
-1 32 -16 25 -30 -14 -30 -51 0 -95 -25 -95 -54 0 -30 33 -59 67 -58 16 1 47
1 71 2 l42 0 0 73 c0 94 -18 117 -88 117 -26 0 -55 -5 -65 -11z"/>
<path d="M1652 588 l3 -133 28 -3 c26 -3 27 -2 27 43 0 44 1 46 23 39 29 -10
72 -8 96 6 46 24 44 133 -2 165 -26 18 -88 20 -105 3 -9 -9 -12 -9 -12 0 0 7
-13 12 -30 12 l-31 0 3 -132z"/>
</g>
</svg>
