<svg id="svg" version="1.1" xmlns="http://www.w3.org/2000/svg" xmlns:xlink="http://www.w3.org/1999/xlink" width="400" height="400" viewBox="0, 0, 400,400"><g id="svgg"><path id="path0" d="M32.601 239.030 C 29.134 240.838,27.942 243.872,29.451 247.050 C 32.018 252.461,41.600 250.166,41.600 244.141 C 41.600 240.532,35.914 237.303,32.601 239.030 M178.400 242.118 L 177.400 242.624 177.296 267.812 C 177.174 297.210,176.489 294.000,182.886 294.000 C 187.195 294.000,187.222 293.994,187.619 292.951 C 188.477 290.694,187.916 242.820,187.024 242.168 C 186.025 241.438,179.815 241.402,178.400 242.118 M102.880 248.480 C 102.600 248.760,102.400 250.101,102.400 251.693 C 102.400 255.359,101.678 257.034,99.937 257.405 C 97.619 257.898,97.200 258.572,97.200 261.813 C 97.200 265.014,97.412 265.354,99.660 265.758 C 102.130 266.203,102.177 266.383,102.419 276.360 C 102.669 286.678,102.738 286.955,105.939 290.457 C 109.042 293.852,114.309 295.397,119.723 294.500 C 124.820 293.656,125.640 292.569,123.906 288.953 L 122.970 287.000 120.371 287.118 C 118.198 287.216,117.550 287.085,116.423 286.318 C 113.488 284.321,113.414 284.053,113.277 274.998 C 113.133 265.378,112.762 266.016,118.710 265.632 C 123.140 265.345,123.282 265.212,123.104 261.507 C 122.938 258.044,122.698 257.845,118.376 257.581 C 113.738 257.298,113.505 257.072,113.151 252.520 C 112.944 249.856,112.714 248.926,112.164 248.524 C 111.216 247.831,103.565 247.795,102.880 248.480 M69.545 256.977 C 66.978 257.515,65.557 258.114,63.729 259.431 C 62.930 260.008,62.807 259.999,62.229 259.329 C 59.921 256.654,60.266 256.800,56.262 256.800 C 50.722 256.800,51.200 255.013,51.200 275.717 C 51.200 296.106,50.536 294.000,56.960 294.000 C 62.330 294.000,62.000 294.681,62.000 283.619 C 62.000 268.989,63.659 265.847,71.400 265.815 C 75.728 265.797,77.373 266.592,79.104 269.535 L 80.200 271.400 80.330 282.195 C 80.483 294.911,80.105 294.000,85.220 294.000 C 90.965 294.000,90.534 295.205,90.289 279.825 C 90.054 265.030,90.195 265.760,86.800 261.753 C 82.702 256.915,77.160 255.381,69.545 256.977 M142.800 257.002 C 137.595 258.423,135.518 260.044,131.661 265.696 C 126.264 273.605,127.777 283.721,135.316 290.140 C 143.144 296.804,166.126 295.663,164.244 288.703 C 163.229 284.949,160.524 283.382,157.807 284.974 C 151.114 288.897,140.000 285.594,140.000 279.681 C 140.000 277.991,139.927 278.000,153.333 277.998 C 169.720 277.995,169.272 278.180,168.416 271.750 C 166.960 260.807,154.704 253.751,142.800 257.002 M208.391 256.761 C 199.818 257.979,194.531 264.290,196.373 271.105 C 197.440 275.055,199.656 276.397,209.180 278.857 C 219.961 281.643,222.166 284.990,214.710 287.255 L 211.961 288.090 208.281 287.237 C 206.256 286.768,203.817 285.937,202.859 285.392 C 199.792 283.644,198.562 284.073,196.847 287.484 C 194.802 291.552,196.551 292.723,207.107 294.351 C 223.516 296.883,235.842 285.638,226.464 276.694 C 223.790 274.143,222.195 273.533,215.630 272.551 C 206.961 271.255,203.732 267.633,208.929 265.036 C 212.112 263.445,216.689 263.438,220.444 265.019 C 223.575 266.336,224.266 266.075,225.970 262.930 C 227.894 259.380,227.660 258.817,223.800 257.703 C 220.257 256.681,212.356 256.198,208.391 256.761 M255.153 256.978 C 253.696 257.282,251.769 257.906,250.868 258.365 C 248.753 259.444,248.564 259.427,246.939 258.000 C 245.298 256.559,239.479 256.178,238.229 257.429 C 237.404 258.253,237.262 292.702,238.080 293.520 C 238.660 294.100,245.904 294.174,246.800 293.609 C 247.300 293.294,247.433 291.475,247.600 282.707 L 247.800 272.183 249.200 269.832 C 251.156 266.547,251.979 266.037,255.802 265.748 C 264.328 265.102,265.621 267.336,265.904 283.200 C 266.111 294.810,265.729 294.000,271.000 294.000 C 276.533 294.000,276.093 295.237,275.934 280.118 L 275.800 267.400 274.089 264.165 C 270.549 257.471,264.249 255.080,255.153 256.978 M296.248 256.854 C 292.361 257.353,289.387 258.295,287.995 259.465 C 286.497 260.726,286.504 260.988,288.114 263.857 C 289.747 266.767,289.975 266.805,296.148 265.213 C 301.370 263.867,301.942 263.900,306.232 265.797 C 308.613 266.850,309.726 268.445,309.523 270.516 C 309.352 272.276,308.117 272.786,304.000 272.797 C 294.520 272.823,290.703 273.865,287.220 277.380 L 284.670 279.952 284.488 283.105 C 284.157 288.830,287.815 292.731,294.917 294.225 C 299.328 295.153,303.733 294.600,307.517 292.643 C 309.069 291.840,308.884 291.815,310.162 293.000 C 311.487 294.228,318.655 294.539,319.593 293.409 C 320.364 292.479,319.935 268.052,319.103 265.510 C 316.665 258.063,309.113 255.203,296.248 256.854 M349.043 256.998 C 347.526 257.313,345.626 258.027,344.821 258.585 C 342.971 259.868,342.582 259.857,341.718 258.500 C 340.676 256.863,340.519 256.813,336.362 256.806 C 330.635 256.797,331.200 253.964,331.200 282.703 C 331.200 310.088,330.973 308.137,334.217 308.623 C 341.240 309.677,341.758 309.116,342.000 300.200 C 342.236 291.508,342.253 291.469,345.295 292.702 C 362.198 299.556,375.935 288.055,372.016 270.332 C 369.614 259.472,361.055 254.505,349.043 256.998 M30.643 257.415 C 29.805 258.252,29.650 292.690,30.480 293.520 C 31.555 294.595,39.167 294.140,39.610 292.974 C 40.228 291.347,40.112 259.245,39.483 258.000 C 38.831 256.709,31.813 256.244,30.643 257.415 M154.483 265.649 C 158.270 267.860,159.548 270.395,157.771 272.171 C 156.909 273.034,141.779 273.112,140.614 272.260 C 139.353 271.337,139.718 269.323,141.475 267.517 C 145.626 263.250,149.435 262.703,154.483 265.649 M356.252 265.815 C 360.549 267.403,362.002 269.921,361.998 275.773 C 361.994 281.169,360.921 282.953,356.200 285.414 C 351.119 288.063,345.821 286.112,343.379 280.691 C 339.043 271.067,346.656 262.270,356.252 265.815 M309.269 278.662 C 311.904 281.047,308.346 287.381,303.798 288.400 C 295.903 290.170,291.506 282.106,298.489 278.664 C 300.392 277.726,308.233 277.725,309.269 278.662 " stroke="none" fill="#1c1d2e" fill-rule="evenodd"></path><path id="path1" d="M0.000 200.000 L 0.000 400.000 200.000 400.000 L 400.000 400.000 400.000 200.000 L 400.000 0.000 200.000 0.000 L 0.000 0.000 0.000 200.000 M182.400 83.070 C 188.528 85.262,193.999 92.458,194.000 98.326 C 194.000 101.618,195.735 104.131,199.571 106.400 C 203.579 108.770,208.086 111.867,210.600 113.977 C 218.810 120.869,219.214 121.066,221.326 119.212 C 226.604 114.577,237.609 115.059,241.744 120.106 C 244.150 123.041,245.762 122.967,249.336 119.753 C 250.454 118.749,252.434 117.389,253.737 116.731 C 255.040 116.073,256.999 114.829,258.091 113.966 C 259.183 113.103,261.227 111.753,262.635 110.966 C 265.640 109.285,265.520 109.440,266.800 105.600 C 268.237 101.288,272.204 99.531,276.209 101.431 C 282.421 104.379,278.508 115.331,271.842 113.652 C 269.377 113.032,269.471 113.008,267.419 114.783 C 266.413 115.654,264.378 117.038,262.895 117.860 C 261.413 118.681,259.210 120.154,258.000 121.132 C 256.790 122.109,255.058 123.229,254.151 123.619 C 251.675 124.684,248.419 127.165,248.220 128.139 C 248.123 128.613,247.956 130.710,247.849 132.800 C 247.733 135.049,247.316 137.635,246.827 139.136 C 246.372 140.530,246.000 141.986,246.000 142.371 C 246.000 143.881,251.921 150.488,255.055 152.476 C 255.993 153.071,257.244 154.288,257.835 155.181 C 258.426 156.074,259.962 157.523,261.250 158.402 L 263.590 159.999 268.133 159.671 C 273.215 159.303,274.081 158.913,276.949 155.701 C 277.801 154.747,279.191 153.613,280.038 153.181 C 280.885 152.749,282.168 151.885,282.889 151.260 C 283.610 150.636,285.077 149.617,286.150 148.996 C 290.465 146.495,292.005 144.045,291.018 141.250 C 289.873 138.007,290.373 135.183,293.017 129.966 C 295.000 126.054,301.805 124.335,308.517 126.052 C 313.776 127.397,316.048 130.987,316.322 138.380 L 316.491 142.960 318.346 145.086 C 319.366 146.255,321.100 147.727,322.200 148.358 C 323.300 148.988,325.730 150.786,327.600 152.352 C 335.641 159.089,336.750 159.794,339.400 159.856 C 340.720 159.888,342.204 159.933,342.699 159.956 C 345.032 160.069,348.325 164.750,347.848 167.275 C 346.295 175.486,335.807 175.427,334.563 167.200 C 334.195 164.773,333.865 164.228,332.105 163.147 C 329.742 161.696,325.203 158.106,323.410 156.271 C 322.512 155.352,320.972 154.107,319.989 153.505 C 319.005 152.903,317.210 151.606,316.000 150.622 C 313.483 148.575,312.312 148.384,309.783 149.608 C 307.370 150.776,302.480 151.075,299.268 150.250 C 295.702 149.335,294.641 149.417,293.114 150.729 C 292.391 151.350,290.630 152.685,289.200 153.694 C 287.770 154.704,285.552 156.448,284.272 157.570 C 282.991 158.691,281.371 159.897,280.672 160.250 C 273.565 163.834,275.780 170.245,285.800 175.093 C 287.812 176.067,290.046 177.474,297.665 182.562 C 299.939 184.081,302.702 185.926,303.803 186.662 C 306.273 188.311,307.588 188.344,309.735 186.809 C 318.072 180.847,332.058 184.465,335.148 193.383 C 339.297 205.357,332.470 215.950,320.503 216.107 C 309.922 216.246,303.239 209.638,303.210 199.009 L 303.200 195.418 300.700 193.066 C 299.323 191.770,297.212 190.276,296.000 189.738 C 294.790 189.202,293.170 188.262,292.400 187.651 C 291.630 187.039,289.740 185.846,288.200 184.998 C 286.660 184.151,284.702 182.840,283.849 182.084 C 282.996 181.328,281.466 180.346,280.449 179.902 C 279.432 179.458,277.704 178.443,276.609 177.647 L 274.617 176.200 269.409 176.326 C 264.828 176.436,264.031 176.559,262.800 177.345 C 262.030 177.837,259.890 178.829,258.045 179.549 C 256.200 180.270,253.294 181.816,251.586 182.986 C 249.878 184.155,247.427 185.493,246.140 185.958 C 244.853 186.423,243.530 186.982,243.200 187.199 C 242.870 187.416,240.407 188.693,237.727 190.035 C 235.047 191.378,232.557 192.805,232.194 193.207 C 231.830 193.609,230.063 194.520,228.266 195.233 C 226.470 195.946,224.820 196.661,224.600 196.822 C 223.776 197.425,216.531 201.514,214.800 202.353 C 208.479 205.416,207.851 206.108,208.186 209.641 C 208.443 212.347,208.421 212.445,206.398 217.650 C 202.387 227.971,182.485 229.404,178.223 219.679 C 177.866 218.865,177.106 217.321,176.534 216.246 C 174.627 212.666,174.918 207.624,177.312 202.769 C 178.350 200.662,179.200 198.497,179.200 197.958 C 179.200 196.806,173.798 186.042,171.842 183.295 C 171.099 182.253,169.857 180.140,169.081 178.600 C 168.305 177.060,166.710 174.326,165.535 172.523 C 164.361 170.721,163.111 168.727,162.757 168.091 C 162.300 167.269,161.029 166.406,158.357 165.103 C 154.031 162.994,153.247 162.036,152.945 158.487 C 152.838 157.229,152.673 155.817,152.580 155.349 C 152.408 154.490,148.521 151.163,145.200 149.032 C 144.210 148.396,142.796 147.178,142.057 146.325 C 141.318 145.471,140.034 144.425,139.202 144.001 C 138.370 143.577,136.455 142.037,134.945 140.580 C 133.435 139.123,131.390 137.463,130.400 136.891 C 129.410 136.318,128.009 135.344,127.286 134.725 C 125.622 133.301,124.710 133.315,122.106 134.808 C 118.667 136.781,118.773 136.277,119.206 148.609 C 119.825 166.234,119.310 164.379,124.275 166.882 C 131.225 170.386,133.761 174.312,133.785 181.600 C 133.833 196.293,115.800 204.050,105.825 193.628 C 104.411 192.150,103.953 192.119,101.835 193.352 C 100.936 193.876,98.519 194.880,96.464 195.583 C 94.409 196.286,91.907 197.297,90.904 197.830 C 89.901 198.364,88.815 198.800,88.490 198.800 C 88.165 198.800,86.616 199.499,85.049 200.353 C 83.482 201.207,81.480 202.130,80.600 202.405 C 79.720 202.680,78.818 203.047,78.595 203.222 C 78.372 203.397,77.112 203.936,75.795 204.419 C 72.413 205.661,71.237 206.669,70.462 208.990 C 68.301 215.463,59.034 216.912,55.263 211.366 C 50.572 204.469,58.006 195.388,65.544 198.809 C 67.951 199.901,70.284 199.421,75.200 196.820 C 75.970 196.412,78.268 195.505,80.307 194.803 C 82.346 194.101,85.628 192.650,87.600 191.579 C 89.572 190.507,92.751 189.142,94.664 188.546 C 99.831 186.935,100.430 186.255,100.616 181.796 C 100.800 177.372,100.525 176.876,96.862 175.031 C 95.366 174.278,93.302 173.020,92.275 172.237 C 91.249 171.453,89.192 170.260,87.704 169.586 C 86.217 168.912,83.978 167.557,82.729 166.576 C 81.480 165.595,79.270 164.260,77.818 163.608 C 76.365 162.956,74.571 161.961,73.830 161.395 C 71.822 159.864,70.233 159.536,67.297 160.047 C 56.640 161.903,51.917 152.205,59.849 144.754 C 63.057 141.740,70.176 144.102,71.820 148.725 C 72.187 149.756,72.665 151.085,72.883 151.678 C 73.314 152.852,77.827 156.071,82.600 158.609 C 84.140 159.428,85.670 160.321,86.000 160.594 C 86.330 160.867,88.310 161.896,90.400 162.881 C 92.490 163.866,95.051 165.326,96.091 166.126 C 100.323 169.382,104.930 171.089,106.001 169.798 C 106.276 169.468,107.523 168.576,108.773 167.816 C 112.281 165.685,112.160 166.332,111.889 151.169 C 111.644 137.427,111.503 136.400,109.868 136.400 C 109.028 136.400,102.959 133.076,101.942 132.058 C 96.069 126.186,96.066 114.439,101.935 108.564 C 105.583 104.913,114.668 102.825,118.321 104.799 C 119.134 105.239,120.569 105.787,121.509 106.017 C 126.547 107.251,129.789 113.477,129.796 121.935 C 129.800 127.217,129.810 127.275,130.800 127.797 C 131.350 128.087,132.194 128.860,132.676 129.514 C 133.732 130.947,138.983 135.260,140.842 136.222 C 141.576 136.601,143.172 137.846,144.388 138.987 C 145.605 140.128,147.704 141.825,149.053 142.756 C 150.403 143.688,152.077 145.160,152.774 146.028 C 156.436 150.584,160.589 150.080,161.571 144.959 C 163.228 136.314,164.065 133.323,166.485 127.400 C 166.934 126.300,167.544 124.230,167.841 122.800 C 168.138 121.370,168.679 118.831,169.043 117.158 C 169.833 113.525,169.710 113.216,166.773 111.462 C 160.314 107.607,158.729 96.935,163.424 88.922 C 166.650 83.419,175.633 80.648,182.400 83.070 M188.848 110.160 C 186.591 112.046,182.625 114.182,179.970 114.943 C 177.187 115.740,176.469 116.524,176.024 119.245 C 175.430 122.875,174.106 127.613,172.571 131.600 C 171.185 135.199,170.778 136.637,169.402 142.800 C 167.793 150.011,167.765 150.602,168.932 152.746 C 170.131 154.949,170.377 158.448,169.532 161.269 C 168.901 163.375,169.938 166.694,172.062 169.368 C 172.922 170.451,174.346 172.873,175.226 174.751 C 176.106 176.629,177.080 178.447,177.391 178.790 C 177.703 179.134,178.524 180.762,179.217 182.408 C 179.910 184.054,181.249 186.394,182.194 187.609 C 183.138 188.825,184.307 190.663,184.792 191.694 C 185.870 193.986,186.422 194.195,191.000 194.039 C 195.541 193.884,195.582 193.859,197.416 190.116 C 198.256 188.402,199.337 186.460,199.817 185.800 C 200.298 185.140,201.919 182.080,203.420 179.000 C 204.922 175.920,206.934 172.170,207.894 170.667 C 208.853 169.164,210.059 166.772,210.574 165.352 C 211.090 163.933,211.969 162.103,212.528 161.286 C 213.087 160.469,214.044 158.540,214.653 157.000 C 215.263 155.460,216.599 153.025,217.621 151.589 C 220.959 146.899,221.001 145.812,217.969 142.559 C 215.338 139.737,214.658 137.485,214.598 131.400 C 214.541 125.579,214.586 125.685,211.272 123.571 C 209.802 122.634,207.700 121.122,206.600 120.211 C 205.500 119.299,203.700 117.941,202.600 117.192 C 201.500 116.442,199.874 115.149,198.987 114.317 C 197.469 112.894,191.360 108.800,190.754 108.800 C 190.601 108.800,189.743 109.412,188.848 110.160 M237.462 148.448 C 236.337 148.893,233.987 149.315,231.862 149.454 C 227.192 149.761,226.820 150.019,225.229 154.062 C 224.507 155.898,223.756 157.597,223.560 157.838 C 223.365 158.079,222.378 159.962,221.368 162.023 C 220.357 164.083,218.909 166.706,218.149 167.851 C 217.389 168.996,216.338 171.027,215.814 172.364 C 215.290 173.702,214.305 175.768,213.625 176.956 C 212.945 178.144,211.867 180.381,211.230 181.927 C 210.592 183.473,209.328 185.744,208.420 186.973 C 206.029 190.209,203.369 196.841,204.214 197.460 C 205.139 198.137,211.649 195.297,217.200 191.795 C 219.847 190.125,230.870 184.622,233.250 183.782 C 234.184 183.453,235.859 182.488,236.974 181.637 C 239.230 179.916,241.400 178.761,243.800 178.004 C 244.680 177.726,245.679 177.256,246.021 176.959 C 246.362 176.662,248.432 175.587,250.621 174.569 C 254.299 172.859,258.303 170.278,259.500 168.845 C 261.212 166.797,258.706 162.851,253.359 159.172 C 252.431 158.533,251.304 157.424,250.854 156.706 C 249.000 153.747,241.566 147.535,240.005 147.641 C 239.672 147.663,238.528 148.027,237.462 148.448 M39.845 238.629 C 47.528 244.848,39.313 255.599,30.630 250.688 C 27.610 248.980,26.296 244.412,27.901 241.200 C 29.880 237.238,36.394 235.836,39.845 238.629 M188.238 240.842 C 188.993 241.676,189.705 290.653,189.003 293.510 C 188.203 296.766,177.284 297.265,175.748 294.115 C 175.340 293.276,175.029 247.212,175.411 244.046 C 175.851 240.399,176.552 240.000,182.520 240.000 C 187.050 240.000,187.542 240.072,188.238 240.842 M113.058 246.723 C 114.210 247.341,114.800 249.200,114.800 252.211 C 114.800 255.343,114.985 255.485,119.289 255.659 C 123.875 255.844,124.506 256.393,124.732 260.395 C 125.063 266.265,124.621 266.771,118.834 267.150 L 115.000 267.400 114.878 274.600 C 114.713 284.398,115.224 285.345,120.617 285.241 C 123.908 285.177,123.923 285.188,125.647 288.833 C 127.620 293.005,127.122 294.095,122.549 295.617 C 117.605 297.264,109.601 296.180,106.602 293.459 C 101.443 288.777,101.178 287.991,100.853 276.402 L 100.600 267.404 98.713 267.002 C 95.762 266.373,95.397 265.779,95.418 261.641 C 95.440 257.302,96.032 256.132,98.399 255.754 C 100.528 255.413,100.693 255.118,100.859 251.341 C 101.012 247.863,101.608 246.640,103.342 246.253 C 104.908 245.902,112.186 246.254,113.058 246.723 M40.146 256.029 L 41.200 256.858 41.200 275.447 L 41.200 294.036 40.184 295.052 C 38.584 296.652,30.427 296.380,28.964 294.678 L 28.000 293.555 28.000 275.797 C 28.000 257.247,28.066 256.481,29.746 255.668 C 31.459 254.838,38.964 255.099,40.146 256.029 M62.095 256.300 C 62.621 256.795,63.259 257.200,63.513 257.200 C 63.768 257.200,64.746 256.795,65.688 256.300 C 67.274 255.466,67.915 255.400,74.400 255.400 L 81.400 255.400 83.539 256.585 C 84.766 257.264,86.156 258.459,86.799 259.385 C 87.416 260.273,88.474 261.525,89.151 262.166 C 91.588 264.475,92.400 269.640,92.400 282.834 C 92.400 296.016,92.409 296.000,85.264 296.000 C 79.067 296.000,79.447 296.753,79.184 283.936 C 78.885 269.304,77.834 267.034,71.379 267.081 C 65.128 267.126,63.600 270.491,63.600 284.208 C 63.600 295.864,63.519 296.000,56.606 296.000 C 51.796 296.000,50.202 295.467,49.706 293.693 C 49.082 291.463,49.340 257.395,49.986 256.616 C 51.448 254.856,60.313 254.624,62.095 256.300 M159.260 256.510 C 165.074 259.365,169.992 266.975,170.305 273.600 C 170.577 279.358,171.654 278.956,155.292 279.200 C 140.194 279.425,140.389 279.377,143.277 282.144 C 147.141 285.846,151.583 286.318,156.958 283.598 C 161.127 281.488,162.487 281.850,164.388 285.577 C 164.803 286.389,165.425 287.289,165.771 287.576 C 171.268 292.138,153.249 298.871,144.098 295.674 C 142.723 295.193,141.193 294.796,140.698 294.791 C 138.179 294.767,132.596 290.706,131.114 287.821 C 130.668 286.952,129.677 285.298,128.911 284.146 C 127.785 282.450,127.441 281.435,127.108 278.825 C 126.155 271.359,127.809 266.912,134.000 260.298 C 138.327 255.675,139.794 255.213,149.800 255.322 C 156.784 255.398,157.068 255.433,159.260 256.510 M225.224 256.319 C 229.594 258.051,229.868 259.056,227.320 263.995 C 225.247 268.012,224.864 268.130,219.406 266.421 C 214.753 264.964,212.977 264.930,210.200 266.247 C 206.489 268.008,210.201 270.587,217.393 271.246 C 226.861 272.113,232.071 277.591,230.808 285.350 C 230.385 287.951,230.262 288.157,227.414 291.037 C 224.626 293.856,223.976 294.196,219.200 295.331 C 211.500 297.160,211.318 297.152,198.800 294.361 C 193.994 293.290,193.211 291.641,195.338 287.074 C 197.562 282.300,199.106 281.710,203.492 283.957 C 207.785 286.157,215.212 286.513,216.804 284.596 C 217.788 283.409,214.434 281.476,210.223 280.804 C 208.760 280.570,206.896 280.124,206.082 279.813 C 205.267 279.502,203.439 278.933,202.019 278.548 C 190.467 275.419,192.638 259.735,205.200 255.566 C 207.516 254.798,222.839 255.374,225.224 256.319 M248.127 256.270 L 249.232 257.141 251.116 256.270 C 252.824 255.481,253.655 255.400,260.000 255.400 L 267.000 255.400 269.447 256.679 C 276.139 260.177,277.600 264.922,277.600 283.158 L 277.600 293.662 276.396 294.865 L 275.193 296.069 270.606 295.934 C 263.811 295.735,264.260 296.602,263.952 283.090 C 263.633 269.033,263.176 267.588,258.897 267.075 C 250.840 266.109,249.111 269.001,248.811 283.936 L 248.600 294.473 247.616 295.269 C 245.914 296.645,237.886 296.215,236.564 294.678 L 235.600 293.555 235.605 275.878 C 235.611 256.366,235.596 256.546,237.358 255.754 C 239.443 254.817,246.725 255.166,248.127 256.270 M313.600 256.487 C 316.127 257.735,319.758 261.958,320.376 264.368 C 322.122 271.177,322.494 293.284,320.890 294.889 C 319.484 296.296,312.361 296.479,310.028 295.167 C 308.433 294.271,308.398 294.270,306.109 294.961 C 300.287 296.721,299.764 296.823,297.800 296.578 C 284.280 294.894,278.093 283.824,286.298 276.000 C 290.260 272.223,291.987 271.654,300.600 271.288 C 307.300 271.004,307.402 270.986,307.531 270.077 C 308.062 266.327,298.890 264.858,293.228 267.786 C 290.772 269.056,288.438 268.448,287.581 266.315 C 287.290 265.592,286.636 264.373,286.126 263.607 C 284.358 260.947,285.582 258.448,289.503 256.713 C 293.941 254.750,309.783 254.601,313.600 256.487 M342.526 256.330 L 343.515 257.260 345.258 256.330 C 347.921 254.908,359.749 254.925,363.519 256.356 C 366.591 257.522,371.668 262.870,372.444 265.758 C 372.686 266.661,373.254 268.660,373.705 270.200 C 374.758 273.791,374.745 277.425,373.666 281.212 C 373.197 282.855,372.632 284.936,372.409 285.836 C 371.628 288.987,366.328 294.086,363.254 294.645 C 362.454 294.791,360.990 295.223,360.000 295.606 C 357.119 296.721,354.493 296.913,352.000 296.189 C 348.344 295.128,344.269 294.371,343.956 294.695 C 343.794 294.863,343.603 298.001,343.531 301.669 C 343.356 310.567,343.491 310.400,336.512 310.400 C 328.545 310.400,329.091 312.664,329.271 280.361 C 329.426 252.646,328.667 255.148,336.869 255.309 C 341.138 255.392,341.623 255.480,342.526 256.330 M145.688 266.231 C 143.414 267.364,141.492 269.344,141.686 270.353 C 141.857 271.241,156.011 271.550,156.732 270.682 C 157.424 269.849,156.336 268.635,153.259 266.808 C 150.034 264.891,148.596 264.782,145.688 266.231 M350.800 266.678 C 345.219 267.608,342.567 272.675,344.438 278.834 C 347.498 288.908,360.184 286.296,360.144 275.600 C 360.120 269.108,356.569 265.717,350.800 266.678 M299.787 279.950 C 294.948 282.148,296.208 287.200,301.595 287.200 C 305.859 287.200,309.905 282.065,307.520 279.680 C 306.755 278.915,301.675 279.093,299.787 279.950 " stroke="none" fill="#fbfbfb" fill-rule="evenodd"></path><path id="path2" d="M174.000 83.832 C 169.152 85.108,165.713 87.436,164.155 90.496 C 160.465 97.746,162.030 107.182,167.416 110.157 C 170.447 111.830,170.902 112.662,170.626 116.017 C 170.272 120.301,168.826 125.407,165.926 132.600 C 165.483 133.700,164.799 136.310,164.408 138.400 C 164.016 140.490,163.507 142.920,163.278 143.800 C 163.048 144.680,162.662 146.155,162.420 147.079 C 161.225 151.642,154.902 151.438,151.548 146.726 C 151.078 146.067,149.399 144.570,147.817 143.400 C 146.235 142.230,144.168 140.530,143.223 139.622 C 142.278 138.714,140.981 137.700,140.340 137.369 C 138.628 136.484,132.721 131.672,131.848 130.452 C 131.434 129.873,130.399 128.907,129.548 128.304 C 127.811 127.074,127.689 126.454,128.593 123.474 C 130.307 117.826,124.968 106.800,120.519 106.800 C 120.220 106.800,118.868 106.333,117.513 105.763 C 113.940 104.259,106.117 106.024,102.684 109.109 C 97.165 114.069,97.282 126.349,102.897 131.480 C 103.853 132.354,109.977 135.600,110.668 135.600 C 112.398 135.600,112.554 136.654,112.949 151.032 C 113.387 166.965,113.561 166.057,109.600 168.600 C 108.170 169.519,106.753 170.570,106.451 170.935 C 105.283 172.349,99.883 170.465,95.831 167.230 C 94.968 166.541,92.286 164.984,89.870 163.770 C 87.455 162.556,85.032 161.211,84.485 160.781 C 83.939 160.352,83.333 160.000,83.139 160.000 C 82.723 160.000,77.088 156.635,75.493 155.434 C 72.343 153.061,72.085 152.761,71.629 150.948 C 69.526 142.598,61.262 141.931,57.413 149.800 C 54.669 155.409,60.016 160.507,67.112 159.048 C 70.136 158.426,71.518 158.675,73.853 160.265 C 74.704 160.844,76.570 161.842,78.000 162.483 C 79.430 163.124,81.633 164.458,82.896 165.448 C 84.158 166.437,86.388 167.789,87.852 168.453 C 89.315 169.116,91.432 170.346,92.556 171.186 C 93.680 172.027,95.896 173.361,97.479 174.152 C 101.821 176.319,102.000 176.601,102.000 181.262 C 102.000 186.700,100.154 188.543,93.000 190.249 C 92.340 190.406,89.787 191.572,87.327 192.839 C 84.867 194.106,81.807 195.447,80.527 195.821 C 79.247 196.194,75.994 197.557,73.298 198.850 C 67.662 201.552,67.906 201.507,65.800 200.210 C 58.275 195.575,50.739 206.498,57.417 212.362 C 61.660 216.087,69.972 212.492,69.998 206.920 C 70.001 206.194,72.335 204.632,74.800 203.707 C 79.029 202.120,82.724 200.462,84.256 199.465 C 85.105 198.912,86.610 198.252,87.600 197.998 C 88.590 197.743,90.028 197.171,90.795 196.725 C 91.563 196.279,93.903 195.331,95.995 194.617 C 98.088 193.903,100.430 192.933,101.200 192.461 C 103.292 191.179,105.007 191.333,106.814 192.965 C 118.483 203.507,135.877 192.927,132.245 177.496 C 131.246 173.250,128.441 170.258,122.781 167.400 C 118.177 165.075,118.418 165.922,118.027 150.649 C 117.626 134.984,117.428 135.722,122.744 133.028 C 125.164 131.802,125.709 131.886,128.054 133.845 C 128.973 134.613,130.296 135.480,130.993 135.771 C 131.690 136.062,133.699 137.646,135.458 139.291 C 137.216 140.936,139.453 142.752,140.428 143.327 C 141.402 143.902,142.687 144.989,143.282 145.742 C 143.876 146.495,145.136 147.545,146.082 148.075 C 151.861 151.318,154.400 154.300,154.400 157.846 C 154.400 161.216,155.017 162.013,159.090 163.905 C 163.079 165.759,163.186 165.859,165.610 170.000 C 166.576 171.650,167.750 173.540,168.220 174.200 C 168.690 174.860,169.932 177.020,170.980 179.000 C 172.029 180.980,173.215 182.960,173.616 183.400 C 174.852 184.755,180.362 195.820,180.615 197.456 C 180.818 198.768,180.550 199.619,178.827 203.125 C 176.211 208.449,175.976 212.071,178.000 215.864 C 178.660 217.101,179.200 218.343,179.200 218.624 C 179.200 221.008,186.903 224.800,191.745 224.800 C 200.352 224.800,207.747 217.029,206.350 209.452 C 205.772 206.312,206.420 204.814,208.908 203.545 C 209.838 203.071,212.170 201.711,214.090 200.523 C 216.009 199.335,218.378 198.011,219.353 197.580 C 220.328 197.148,222.281 196.094,223.693 195.236 C 225.105 194.378,226.902 193.499,227.687 193.282 C 228.472 193.066,230.252 192.116,231.642 191.171 C 233.033 190.227,235.707 188.680,237.585 187.733 C 240.242 186.394,240.753 186.010,239.887 186.006 C 238.754 186.000,237.934 184.947,238.682 184.460 C 239.252 184.088,240.091 182.400,239.705 182.400 C 239.528 182.400,238.745 182.925,237.966 183.567 C 237.187 184.209,234.936 185.365,232.964 186.136 C 230.991 186.907,228.033 188.253,226.389 189.128 C 224.745 190.003,222.976 190.845,222.459 191.000 C 221.941 191.154,220.913 191.667,220.175 192.140 C 216.347 194.592,214.936 195.358,210.406 197.446 C 202.934 200.890,199.941 199.977,202.383 195.000 C 202.814 194.120,203.635 192.320,204.205 191.000 C 204.776 189.680,206.134 187.311,207.222 185.735 C 208.310 184.159,209.200 182.590,209.200 182.248 C 209.200 181.906,210.085 179.865,211.167 177.713 C 212.248 175.561,213.660 172.630,214.304 171.200 C 214.948 169.770,215.969 167.880,216.571 167.000 C 217.174 166.120,218.483 163.690,219.480 161.600 C 220.477 159.510,221.620 157.339,222.020 156.776 C 222.420 156.212,222.875 155.222,223.031 154.576 C 224.351 149.116,226.190 147.550,231.695 147.197 C 237.120 146.849,240.593 145.486,239.166 144.263 C 238.752 143.909,238.141 143.725,237.807 143.853 C 237.156 144.103,237.052 143.592,237.452 142.100 C 237.585 141.605,237.942 141.200,238.247 141.200 C 238.595 141.200,238.800 140.755,238.800 140.000 C 238.800 139.230,238.596 138.800,238.232 138.800 C 237.454 138.800,236.922 133.928,237.550 132.550 C 238.108 131.326,238.141 128.800,237.600 128.800 C 237.363 128.800,237.200 127.319,237.200 125.157 C 237.200 122.084,237.294 121.550,237.800 121.745 C 238.185 121.892,238.411 121.729,238.432 121.287 C 238.451 120.870,238.542 120.797,238.665 121.100 C 238.776 121.375,239.132 121.600,239.457 121.600 C 239.801 121.600,239.928 121.792,239.762 122.062 C 239.583 122.350,239.652 122.415,239.945 122.234 C 240.283 122.025,240.186 121.623,239.601 120.801 C 237.338 117.623,225.580 117.635,222.428 120.819 C 220.333 122.935,218.918 122.952,216.426 120.888 C 215.422 120.057,214.092 119.054,213.471 118.660 C 212.850 118.266,211.080 116.786,209.539 115.372 C 207.998 113.957,206.526 112.799,206.268 112.798 C 206.011 112.797,204.810 112.046,203.600 111.128 C 202.390 110.210,200.381 108.861,199.135 108.131 C 195.040 105.730,192.400 102.299,192.400 99.379 C 192.400 97.518,191.368 93.695,190.623 92.800 C 190.349 92.470,189.542 91.163,188.831 89.896 C 186.136 85.098,179.500 82.384,174.000 83.832 M193.828 108.700 C 196.336 110.250,201.684 114.147,205.321 117.074 C 206.464 117.994,209.173 119.955,211.341 121.431 C 216.598 125.012,216.817 125.409,216.714 131.200 C 216.594 137.978,216.791 138.642,219.828 141.724 C 223.444 145.394,223.313 147.141,219.002 152.729 C 218.039 153.978,217.123 155.540,216.968 156.200 C 216.643 157.583,215.036 160.919,213.964 162.441 C 213.560 163.013,212.810 164.633,212.296 166.041 C 211.783 167.448,210.696 169.566,209.881 170.746 C 209.066 171.926,207.577 174.615,206.572 176.722 C 205.568 178.828,204.423 181.013,204.029 181.576 C 203.634 182.139,203.082 183.320,202.802 184.200 C 202.522 185.080,201.709 186.610,200.996 187.600 C 200.282 188.590,199.243 190.300,198.687 191.400 C 196.840 195.049,196.092 195.462,190.769 195.762 C 185.417 196.065,184.363 195.633,183.607 192.826 C 183.380 191.984,182.341 190.227,181.297 188.920 C 180.254 187.613,178.979 185.567,178.465 184.372 C 177.951 183.177,177.181 181.570,176.754 180.800 C 176.326 180.030,175.122 177.690,174.076 175.600 C 173.031 173.510,171.539 170.974,170.761 169.965 C 168.115 166.534,167.348 163.649,168.162 160.197 C 168.926 156.954,168.663 155.002,167.120 152.483 C 166.609 151.647,166.389 150.771,166.520 150.083 C 166.634 149.487,167.104 147.020,167.564 144.600 C 168.609 139.110,169.577 135.557,171.212 131.200 C 172.516 127.728,172.961 126.129,174.386 119.800 C 175.443 115.102,176.017 114.365,179.238 113.560 C 182.093 112.848,185.480 111.006,187.600 109.013 C 189.988 106.768,190.646 106.735,193.828 108.700 M38.800 239.725 C 38.800 239.794,39.385 240.379,40.100 241.025 L 41.400 242.200 40.225 240.900 C 39.130 239.688,38.800 239.416,38.800 239.725 M29.629 241.054 C 29.173 241.634,28.805 242.309,28.812 242.554 C 28.819 242.799,29.024 242.640,29.268 242.200 C 29.512 241.760,29.985 241.085,30.318 240.700 C 30.651 240.315,30.819 240.000,30.691 240.000 C 30.563 240.000,30.085 240.474,29.629 241.054 M176.988 268.000 C 176.988 281.750,177.038 287.375,177.100 280.500 C 177.161 273.625,177.161 262.375,177.100 255.500 C 177.038 248.625,176.988 254.250,176.988 268.000 M105.500 247.893 C 106.435 247.977,107.965 247.977,108.900 247.893 C 109.835 247.809,109.070 247.740,107.200 247.740 C 105.330 247.740,104.565 247.809,105.500 247.893 M102.131 252.200 C 102.133 253.740,102.205 254.321,102.292 253.491 C 102.379 252.661,102.377 251.401,102.289 250.691 C 102.200 249.981,102.129 250.660,102.131 252.200 M34.105 250.287 C 34.714 250.379,35.614 250.377,36.105 250.282 C 36.597 250.187,36.100 250.111,35.000 250.114 C 33.900 250.117,33.497 250.195,34.105 250.287 M33.312 256.695 C 34.364 256.777,35.984 256.776,36.912 256.692 C 37.840 256.608,36.980 256.541,35.000 256.542 C 33.020 256.543,32.260 256.612,33.312 256.695 M54.711 256.693 C 55.651 256.778,57.091 256.777,57.911 256.691 C 58.730 256.605,57.960 256.536,56.200 256.537 C 54.440 256.539,53.770 256.609,54.711 256.693 M208.500 256.676 C 208.885 256.776,209.515 256.776,209.900 256.676 C 210.285 256.575,209.970 256.493,209.200 256.493 C 208.430 256.493,208.115 256.575,208.500 256.676 M218.100 256.676 C 218.485 256.776,219.115 256.776,219.500 256.676 C 219.885 256.575,219.570 256.493,218.800 256.493 C 218.030 256.493,217.715 256.575,218.100 256.676 M240.711 256.693 C 241.651 256.778,243.091 256.777,243.911 256.691 C 244.730 256.605,243.960 256.536,242.200 256.537 C 240.440 256.539,239.770 256.609,240.711 256.693 M306.100 256.676 C 306.485 256.776,307.115 256.776,307.500 256.676 C 307.885 256.575,307.570 256.493,306.800 256.493 C 306.030 256.493,305.715 256.575,306.100 256.676 M334.912 256.695 C 335.964 256.777,337.584 256.776,338.512 256.692 C 339.440 256.608,338.580 256.541,336.600 256.542 C 334.620 256.543,333.860 256.612,334.912 256.695 M246.975 258.032 C 247.804 258.760,248.668 259.187,249.089 259.078 C 249.681 258.924,249.661 258.885,248.970 258.846 C 248.513 258.821,247.717 258.350,247.200 257.800 C 246.683 257.250,246.106 256.800,245.916 256.800 C 245.727 256.800,246.203 257.354,246.975 258.032 M116.900 257.491 C 117.725 257.578,119.075 257.578,119.900 257.491 C 120.725 257.405,120.050 257.334,118.400 257.334 C 116.750 257.334,116.075 257.405,116.900 257.491 M341.699 258.400 C 342.027 258.950,342.634 259.442,343.048 259.493 C 343.571 259.558,343.617 259.512,343.200 259.345 C 342.870 259.212,342.263 258.720,341.851 258.252 L 341.102 257.400 341.699 258.400 M29.784 275.600 C 29.784 285.170,29.836 289.085,29.900 284.300 C 29.963 279.515,29.963 271.685,29.900 266.900 C 29.836 262.115,29.784 266.030,29.784 275.600 M50.984 275.600 C 50.984 285.170,51.036 289.085,51.100 284.300 C 51.163 279.515,51.163 271.685,51.100 266.900 C 51.036 262.115,50.984 266.030,50.984 275.600 M227.152 259.687 C 227.337 260.798,227.393 260.855,227.519 260.054 C 227.601 259.533,227.503 258.943,227.301 258.741 C 227.079 258.519,227.021 258.893,227.152 259.687 M237.384 275.600 C 237.384 285.170,237.436 289.085,237.500 284.300 C 237.563 279.515,237.563 271.685,237.500 266.900 C 237.436 262.115,237.384 266.030,237.384 275.600 M330.988 282.600 C 330.988 296.020,331.038 301.452,331.100 294.671 C 331.161 287.890,331.161 276.910,331.100 270.271 C 331.038 263.632,330.988 269.180,330.988 282.600 M96.931 261.800 C 96.933 263.340,97.005 263.921,97.092 263.091 C 97.179 262.261,97.177 261.001,97.089 260.291 C 97.000 259.581,96.929 260.260,96.931 261.800 M134.181 262.100 L 132.600 263.800 134.300 262.219 C 135.881 260.748,136.184 260.400,135.881 260.400 C 135.816 260.400,135.051 261.165,134.181 262.100 M164.200 263.200 C 165.059 264.080,165.852 264.800,165.962 264.800 C 166.072 264.800,165.459 264.080,164.600 263.200 C 163.741 262.320,162.948 261.600,162.838 261.600 C 162.728 261.600,163.341 262.320,164.200 263.200 M367.600 261.725 C 367.600 261.794,368.185 262.379,368.900 263.025 L 370.200 264.200 369.025 262.900 C 367.930 261.688,367.600 261.416,367.600 261.725 M351.500 265.082 C 351.995 265.178,352.805 265.178,353.300 265.082 C 353.795 264.987,353.390 264.909,352.400 264.909 C 351.410 264.909,351.005 264.987,351.500 265.082 M117.091 265.889 C 117.801 265.977,119.061 265.979,119.891 265.892 C 120.721 265.805,120.140 265.733,118.600 265.731 C 117.060 265.729,116.381 265.800,117.091 265.889 M129.381 268.837 C 129.029 269.518,128.812 270.145,128.899 270.232 C 128.986 270.319,129.356 269.762,129.722 268.995 C 130.544 267.270,130.259 267.138,129.381 268.837 M102.167 275.400 C 102.167 279.580,102.226 281.236,102.298 279.079 C 102.371 276.923,102.370 273.503,102.298 271.479 C 102.225 269.456,102.166 271.220,102.167 275.400 M90.093 269.600 C 90.093 270.370,90.175 270.685,90.276 270.300 C 90.376 269.915,90.376 269.285,90.276 268.900 C 90.175 268.515,90.093 268.830,90.093 269.600 M320.174 282.600 C 320.175 288.320,320.231 290.604,320.299 287.676 C 320.368 284.748,320.367 280.068,320.299 277.276 C 320.230 274.484,320.174 276.880,320.174 282.600 M80.109 274.400 C 80.109 275.390,80.187 275.795,80.282 275.300 C 80.378 274.805,80.378 273.995,80.282 273.500 C 80.187 273.005,80.109 273.410,80.109 274.400 M90.573 282.600 C 90.573 288.100,90.630 290.405,90.699 287.723 C 90.768 285.041,90.768 280.541,90.699 277.723 C 90.630 274.905,90.574 277.100,90.573 282.600 M276.173 282.600 C 276.173 288.100,276.230 290.405,276.299 287.723 C 276.368 285.041,276.368 280.541,276.299 277.723 C 276.230 274.905,276.174 277.100,276.173 282.600 M297.300 273.076 C 297.685 273.176,298.315 273.176,298.700 273.076 C 299.085 272.975,298.770 272.893,298.000 272.893 C 297.230 272.893,296.915 272.975,297.300 273.076 M128.128 275.600 C 128.128 277.030,128.201 277.615,128.289 276.900 C 128.378 276.185,128.378 275.015,128.289 274.300 C 128.201 273.585,128.128 274.170,128.128 275.600 M372.901 275.400 C 372.905 276.280,372.987 276.593,373.083 276.095 C 373.179 275.598,373.175 274.878,373.075 274.495 C 372.975 274.113,372.896 274.520,372.901 275.400 M226.600 276.800 C 227.683 277.900,228.660 278.800,228.770 278.800 C 228.880 278.800,228.083 277.900,227.000 276.800 C 225.917 275.700,224.940 274.800,224.830 274.800 C 224.720 274.800,225.517 275.700,226.600 276.800 M286.786 277.500 L 284.600 279.800 286.900 277.614 C 289.037 275.582,289.383 275.200,289.086 275.200 C 289.024 275.200,287.989 276.235,286.786 277.500 M265.770 284.200 C 265.771 289.040,265.829 290.965,265.899 288.478 C 265.969 285.991,265.969 282.031,265.898 279.678 C 265.828 277.325,265.770 279.360,265.770 284.200 M308.711 278.623 C 309.392 279.100,309.616 279.685,309.670 281.123 L 309.740 283.000 309.895 281.259 C 310.049 279.524,309.280 278.000,308.249 278.000 C 308.014 278.000,308.222 278.280,308.711 278.623 M284.101 283.800 C 284.105 284.680,284.187 284.993,284.283 284.495 C 284.379 283.998,284.375 283.278,284.275 282.895 C 284.175 282.513,284.096 282.920,284.101 283.800 M351.700 286.676 C 352.085 286.776,352.715 286.776,353.100 286.676 C 353.485 286.575,353.170 286.493,352.400 286.493 C 351.630 286.493,351.315 286.575,351.700 286.676 M118.305 287.083 C 118.802 287.179,119.522 287.175,119.905 287.075 C 120.287 286.975,119.880 286.896,119.000 286.901 C 118.120 286.905,117.807 286.987,118.305 287.083 M164.200 289.200 C 164.200 289.818,164.335 290.240,164.500 290.138 C 164.665 290.036,164.800 289.614,164.800 289.200 C 164.800 288.786,164.665 288.364,164.500 288.262 C 164.335 288.160,164.200 288.582,164.200 289.200 M226.000 290.200 C 225.028 291.190,224.323 292.000,224.433 292.000 C 224.543 292.000,225.428 291.190,226.400 290.200 C 227.372 289.210,228.077 288.400,227.967 288.400 C 227.857 288.400,226.972 289.210,226.000 290.200 M287.000 290.400 C 288.083 291.500,289.060 292.400,289.170 292.400 C 289.280 292.400,288.483 291.500,287.400 290.400 C 286.317 289.300,285.340 288.400,285.230 288.400 C 285.120 288.400,285.917 289.300,287.000 290.400 M300.900 288.676 C 301.285 288.776,301.915 288.776,302.300 288.676 C 302.685 288.575,302.370 288.493,301.600 288.493 C 300.830 288.493,300.515 288.575,300.900 288.676 M195.646 290.251 C 195.621 290.719,195.915 291.349,196.300 291.651 C 196.909 292.128,196.940 292.122,196.543 291.600 C 196.292 291.270,195.998 290.640,195.889 290.200 C 195.703 289.440,195.690 289.443,195.646 290.251 M124.854 291.620 C 124.825 292.181,124.665 292.812,124.500 293.023 C 124.335 293.233,124.441 293.202,124.735 292.954 C 125.029 292.706,125.188 292.074,125.089 291.551 C 124.911 290.610,124.908 290.610,124.854 291.620 M85.400 294.000 L 81.400 294.245 85.276 294.323 C 87.517 294.367,89.257 294.231,89.400 294.000 C 89.536 293.780,89.592 293.635,89.524 293.677 C 89.456 293.720,87.600 293.865,85.400 294.000 M311.154 294.116 C 311.329 294.290,313.166 294.378,315.236 294.313 L 319.000 294.195 314.918 293.997 C 312.673 293.889,310.979 293.942,311.154 294.116 M33.113 294.295 C 34.276 294.376,36.076 294.376,37.113 294.293 C 38.151 294.211,37.200 294.145,35.000 294.146 C 32.800 294.147,31.951 294.214,33.113 294.295 M54.700 294.295 C 55.855 294.376,57.745 294.376,58.900 294.295 C 60.055 294.214,59.110 294.148,56.800 294.148 C 54.490 294.148,53.545 294.214,54.700 294.295 M180.700 294.295 C 181.855 294.376,183.745 294.376,184.900 294.295 C 186.055 294.214,185.110 294.148,182.800 294.148 C 180.490 294.148,179.545 294.214,180.700 294.295 M240.500 294.294 C 241.545 294.376,243.255 294.376,244.300 294.294 C 245.345 294.212,244.490 294.144,242.400 294.144 C 240.310 294.144,239.455 294.212,240.500 294.294 M269.113 294.295 C 270.276 294.376,272.076 294.376,273.113 294.293 C 274.151 294.211,273.200 294.145,271.000 294.146 C 268.800 294.147,267.951 294.214,269.113 294.295 M116.500 295.076 C 116.885 295.176,117.515 295.176,117.900 295.076 C 118.285 294.975,117.970 294.893,117.200 294.893 C 116.430 294.893,116.115 294.975,116.500 295.076 M148.500 295.076 C 148.885 295.176,149.515 295.176,149.900 295.076 C 150.285 294.975,149.970 294.893,149.200 294.893 C 148.430 294.893,148.115 294.975,148.500 295.076 M210.905 295.087 C 211.514 295.179,212.414 295.177,212.905 295.082 C 213.397 294.987,212.900 294.911,211.800 294.914 C 210.700 294.917,210.297 294.995,210.905 295.087 M298.300 295.082 C 298.795 295.178,299.605 295.178,300.100 295.082 C 300.595 294.987,300.190 294.909,299.200 294.909 C 298.210 294.909,297.805 294.987,298.300 295.082 M353.905 295.083 C 354.402 295.179,355.122 295.175,355.505 295.075 C 355.887 294.975,355.480 294.896,354.600 294.901 C 353.720 294.905,353.407 294.987,353.905 295.083 " stroke="none" fill="#9e4cc6" fill-rule="evenodd"></path><path id="path3" d="M271.074 102.807 C 269.284 103.344,268.916 103.866,268.400 106.602 C 267.830 109.622,267.202 110.366,263.332 112.613 C 261.829 113.486,259.872 114.863,258.982 115.675 C 258.092 116.487,256.382 117.634,255.182 118.224 C 253.982 118.815,252.190 120.062,251.200 120.996 C 248.751 123.306,246.411 124.800,245.242 124.800 C 244.112 124.800,240.800 122.966,240.800 122.340 C 240.800 122.106,240.521 122.022,240.179 122.153 C 239.823 122.289,239.663 122.222,239.803 121.995 C 239.937 121.778,239.782 121.600,239.457 121.600 C 239.132 121.600,238.776 121.375,238.665 121.100 C 238.542 120.797,238.451 120.870,238.432 121.287 C 238.411 121.729,238.185 121.892,237.800 121.745 C 237.294 121.550,237.200 122.084,237.200 125.157 C 237.200 127.319,237.363 128.800,237.600 128.800 C 238.141 128.800,238.108 131.326,237.550 132.550 C 236.922 133.928,237.454 138.800,238.232 138.800 C 238.596 138.800,238.800 139.230,238.800 140.000 C 238.800 140.755,238.595 141.200,238.247 141.200 C 237.942 141.200,237.585 141.605,237.452 142.100 C 237.049 143.605,237.154 144.103,237.821 143.847 C 238.167 143.714,238.821 143.961,239.297 144.404 C 239.767 144.842,240.435 145.200,240.781 145.200 C 242.406 145.200,249.945 151.831,252.435 155.452 C 253.094 156.409,254.060 157.418,254.583 157.696 C 256.101 158.502,261.995 164.359,262.047 165.113 C 262.335 169.284,259.236 172.713,252.383 175.808 C 250.532 176.643,248.311 177.839,247.449 178.464 C 246.586 179.089,245.735 179.600,245.558 179.600 C 244.612 179.600,239.992 182.196,239.787 182.842 C 239.655 183.256,239.272 183.871,238.935 184.208 C 236.938 186.205,239.715 186.474,243.678 184.668 C 245.285 183.936,247.065 183.220,247.634 183.077 C 248.202 182.935,249.372 182.256,250.234 181.569 C 251.966 180.187,257.999 177.200,259.057 177.200 C 259.427 177.200,260.568 176.662,261.592 176.005 C 264.290 174.274,273.332 173.902,275.842 175.419 C 276.699 175.937,278.595 176.992,280.056 177.763 C 281.516 178.534,283.558 179.898,284.592 180.793 C 285.626 181.688,287.221 182.798,288.136 183.258 C 289.051 183.719,290.691 184.730,291.780 185.505 C 292.869 186.280,294.939 187.525,296.380 188.271 C 297.821 189.018,300.170 190.706,301.600 192.021 L 304.200 194.413 304.422 199.507 C 304.851 209.331,310.889 215.082,320.607 214.921 C 331.675 214.737,337.772 205.382,334.197 194.067 C 331.521 185.595,317.071 181.914,310.193 187.953 C 307.306 190.488,305.862 189.950,294.103 181.964 C 288.881 178.417,286.588 176.996,285.356 176.540 C 282.565 175.509,276.736 171.214,275.901 169.574 C 273.790 165.428,275.395 161.088,279.866 158.851 C 280.783 158.393,282.552 157.126,283.797 156.036 C 285.043 154.947,287.083 153.368,288.331 152.529 C 289.579 151.690,291.407 150.313,292.393 149.469 C 294.420 147.735,296.058 147.626,299.600 148.987 C 301.980 149.902,306.668 149.644,309.200 148.459 C 312.508 146.912,314.493 147.451,318.400 150.957 C 319.170 151.648,320.520 152.641,321.400 153.163 C 322.280 153.685,323.735 154.852,324.633 155.756 C 327.340 158.482,330.764 161.255,332.397 162.044 C 334.250 162.939,335.597 164.708,335.609 166.262 C 335.653 172.027,342.368 174.653,345.390 170.088 C 348.329 165.645,345.375 160.302,340.347 160.969 C 337.748 161.314,335.413 160.253,331.429 156.919 C 327.498 153.629,322.871 150.120,321.000 149.011 C 320.120 148.489,318.471 146.998,317.336 145.699 L 315.272 143.336 315.132 138.768 C 314.868 130.158,311.553 126.659,303.681 126.678 C 295.345 126.699,290.810 132.371,292.398 140.790 C 293.156 144.805,290.964 148.574,286.883 150.273 C 286.067 150.612,284.624 151.603,283.676 152.475 C 282.728 153.347,281.378 154.304,280.676 154.600 C 279.974 154.896,278.752 155.919,277.961 156.873 C 275.414 159.941,273.680 160.859,269.703 161.242 C 267.777 161.427,265.473 161.689,264.585 161.824 C 263.136 162.043,262.748 161.900,260.796 160.434 C 259.600 159.535,258.490 158.800,258.330 158.800 C 258.170 158.800,257.482 157.992,256.802 157.003 C 256.123 156.015,254.539 154.494,253.283 153.622 C 248.929 150.600,243.600 144.626,243.600 142.767 C 243.600 142.331,243.983 140.855,244.450 139.487 C 245.080 137.647,245.335 135.780,245.431 132.311 C 245.576 127.071,245.799 126.413,247.917 124.996 C 248.733 124.450,250.030 123.563,250.800 123.025 C 251.570 122.487,252.830 121.831,253.600 121.566 C 254.370 121.302,255.810 120.422,256.800 119.610 C 257.790 118.799,260.040 117.359,261.800 116.411 C 263.560 115.464,265.731 113.990,266.623 113.136 L 268.247 111.584 271.753 111.692 L 275.260 111.800 276.430 110.494 C 279.951 106.563,276.252 101.253,271.074 102.807 " stroke="none" fill="#3e94de" fill-rule="evenodd"></path><path id="path4" d="M170.681 83.521 C 164.842 85.975,163.242 87.805,161.412 94.122 C 159.387 101.108,161.641 108.399,166.773 111.462 C 169.710 113.216,169.833 113.525,169.043 117.158 C 168.679 118.831,168.138 121.370,167.841 122.800 C 167.544 124.230,166.934 126.300,166.485 127.400 C 164.065 133.323,163.228 136.314,161.571 144.959 C 160.589 150.080,156.436 150.584,152.774 146.028 C 152.077 145.160,150.403 143.688,149.053 142.756 C 147.704 141.825,145.605 140.128,144.388 138.987 C 143.172 137.846,141.576 136.601,140.842 136.222 C 138.983 135.260,133.732 130.947,132.676 129.514 C 132.194 128.860,131.350 128.087,130.800 127.797 C 129.810 127.275,129.800 127.217,129.796 121.935 C 129.789 113.477,126.547 107.251,121.509 106.017 C 120.569 105.787,119.134 105.239,118.321 104.799 C 114.668 102.825,105.583 104.913,101.935 108.564 C 96.066 114.439,96.069 126.186,101.942 132.058 C 102.959 133.076,109.028 136.400,109.868 136.400 C 111.503 136.400,111.644 137.427,111.889 151.169 C 112.160 166.332,112.281 165.685,108.773 167.816 C 107.523 168.576,106.276 169.468,106.001 169.798 C 104.930 171.089,100.323 169.382,96.091 166.126 C 95.051 165.326,92.490 163.866,90.400 162.881 C 88.310 161.896,86.330 160.867,86.000 160.594 C 85.670 160.321,84.140 159.428,82.600 158.609 C 77.827 156.071,73.314 152.852,72.883 151.678 C 72.665 151.085,72.187 149.756,71.820 148.725 C 70.176 144.102,63.057 141.740,59.849 144.754 C 51.917 152.205,56.640 161.903,67.297 160.047 C 70.233 159.536,71.822 159.864,73.830 161.395 C 74.571 161.961,76.365 162.956,77.818 163.608 C 79.270 164.260,81.480 165.595,82.729 166.576 C 83.978 167.557,86.217 168.912,87.704 169.586 C 89.192 170.260,91.249 171.453,92.275 172.237 C 93.302 173.020,95.366 174.278,96.862 175.031 C 100.525 176.876,100.800 177.372,100.616 181.796 C 100.430 186.255,99.831 186.935,94.664 188.546 C 92.751 189.142,89.572 190.507,87.600 191.579 C 85.628 192.650,82.346 194.101,80.307 194.803 C 78.268 195.505,75.970 196.412,75.200 196.820 C 70.284 199.421,67.951 199.901,65.544 198.809 C 58.006 195.388,50.572 204.469,55.263 211.366 C 59.034 216.912,68.301 215.463,70.462 208.990 C 71.237 206.669,72.413 205.661,75.795 204.419 C 77.112 203.936,78.372 203.397,78.595 203.222 C 78.818 203.047,79.720 202.680,80.600 202.405 C 81.480 202.130,83.482 201.207,85.049 200.353 C 86.616 199.499,88.165 198.800,88.490 198.800 C 88.815 198.800,89.901 198.364,90.904 197.830 C 91.907 197.297,94.409 196.286,96.464 195.583 C 98.519 194.880,100.936 193.876,101.835 193.352 C 103.953 192.119,104.411 192.150,105.825 193.628 C 115.800 204.050,133.833 196.293,133.785 181.600 C 133.761 174.312,131.225 170.386,124.275 166.882 C 119.310 164.379,119.825 166.234,119.206 148.609 C 118.773 136.277,118.667 136.781,122.106 134.808 C 124.710 133.315,125.622 133.301,127.286 134.725 C 128.009 135.344,129.410 136.318,130.400 136.891 C 131.390 137.463,133.435 139.123,134.945 140.580 C 136.455 142.037,138.370 143.577,139.202 144.001 C 140.034 144.425,141.318 145.471,142.057 146.325 C 142.796 147.178,144.210 148.396,145.200 149.032 C 148.521 151.163,152.408 154.490,152.580 155.349 C 152.673 155.817,152.838 157.229,152.945 158.487 C 153.247 162.036,154.031 162.994,158.357 165.103 C 161.029 166.406,162.300 167.269,162.757 168.091 C 163.111 168.727,164.361 170.721,165.535 172.523 C 166.710 174.326,168.305 177.060,169.081 178.600 C 169.857 180.140,171.099 182.253,171.842 183.295 C 173.798 186.042,179.200 196.806,179.200 197.958 C 179.200 198.497,178.350 200.662,177.312 202.769 C 174.918 207.624,174.627 212.666,176.534 216.246 C 177.106 217.321,177.866 218.865,178.223 219.679 C 182.485 229.404,202.387 227.971,206.398 217.650 C 208.421 212.445,208.443 212.347,208.186 209.641 C 207.851 206.108,208.479 205.416,214.800 202.353 C 216.531 201.514,223.776 197.425,224.600 196.822 C 224.820 196.661,226.470 195.946,228.266 195.233 C 230.063 194.520,231.830 193.609,232.194 193.207 C 232.557 192.805,235.047 191.378,237.727 190.035 C 240.407 188.693,242.870 187.416,243.200 187.199 C 243.530 186.982,244.853 186.423,246.140 185.958 C 247.427 185.493,249.878 184.155,251.586 182.986 C 253.294 181.816,256.200 180.270,258.045 179.549 C 259.890 178.829,262.030 177.837,262.800 177.345 C 264.031 176.559,264.828 176.436,269.409 176.326 L 274.617 176.200 276.609 177.647 C 277.704 178.443,279.432 179.458,280.449 179.902 C 281.466 180.346,282.996 181.328,283.849 182.084 C 284.702 182.840,286.660 184.151,288.200 184.998 C 289.740 185.846,291.630 187.039,292.400 187.651 C 293.170 188.262,294.790 189.202,296.000 189.738 C 297.212 190.276,299.323 191.770,300.700 193.066 L 303.200 195.418 303.210 199.009 C 303.239 209.638,309.922 216.246,320.503 216.107 C 332.470 215.950,339.297 205.357,335.148 193.383 C 332.058 184.465,318.072 180.847,309.735 186.809 C 307.588 188.344,306.273 188.311,303.803 186.662 C 302.702 185.926,299.939 184.081,297.665 182.562 C 290.046 177.474,287.812 176.067,285.800 175.093 C 275.780 170.245,273.565 163.834,280.672 160.250 C 281.371 159.897,282.991 158.691,284.272 157.570 C 285.552 156.448,287.770 154.704,289.200 153.694 C 290.630 152.685,292.391 151.350,293.114 150.729 C 294.641 149.417,295.702 149.335,299.268 150.250 C 302.480 151.075,307.370 150.776,309.783 149.608 C 312.312 148.384,313.483 148.575,316.000 150.622 C 317.210 151.606,319.005 152.903,319.989 153.505 C 320.972 154.107,322.512 155.352,323.410 156.271 C 325.203 158.106,329.742 161.696,332.105 163.147 C 333.865 164.228,334.195 164.773,334.563 167.200 C 335.807 175.427,346.295 175.486,347.848 167.275 C 348.325 164.750,345.032 160.069,342.699 159.956 C 342.204 159.933,340.720 159.888,339.400 159.856 C 336.750 159.794,335.641 159.089,327.600 152.352 C 325.730 150.786,323.300 148.988,322.200 148.358 C 321.100 147.727,319.366 146.255,318.346 145.086 L 316.491 142.960 316.322 138.380 C 316.048 130.987,313.776 127.397,308.517 126.052 C 301.805 124.335,295.000 126.054,293.017 129.966 C 290.373 135.183,289.873 138.007,291.018 141.250 C 292.005 144.045,290.465 146.495,286.150 148.996 C 285.077 149.617,283.610 150.636,282.889 151.260 C 282.168 151.885,280.885 152.749,280.038 153.181 C 279.191 153.613,277.801 154.747,276.949 155.701 C 274.081 158.913,273.215 159.303,268.133 159.671 L 263.590 159.999 261.250 158.402 C 259.962 157.523,258.426 156.074,257.835 155.181 C 257.244 154.288,255.993 153.071,255.055 152.476 C 251.921 150.488,246.000 143.881,246.000 142.371 C 246.000 141.986,246.372 140.530,246.827 139.136 C 247.316 137.635,247.733 135.049,247.849 132.800 C 247.956 130.710,248.123 128.613,248.220 128.139 C 248.419 127.165,251.675 124.684,254.151 123.619 C 255.058 123.229,256.790 122.109,258.000 121.132 C 259.210 120.154,261.413 118.681,262.895 117.860 C 264.378 117.038,266.413 115.654,267.419 114.783 C 269.471 113.008,269.377 113.032,271.842 113.652 C 278.508 115.331,282.421 104.379,276.209 101.431 C 272.204 99.531,268.237 101.288,266.800 105.600 C 265.520 109.440,265.640 109.285,262.635 110.966 C 261.227 111.753,259.183 113.103,258.091 113.966 C 256.999 114.829,255.040 116.073,253.737 116.731 C 252.434 117.389,250.454 118.749,249.336 119.753 C 245.762 122.967,244.150 123.041,241.744 120.106 C 237.609 115.059,226.604 114.577,221.326 119.212 C 219.214 121.066,218.810 120.869,210.600 113.977 C 208.086 111.867,203.579 108.770,199.571 106.400 C 195.735 104.131,194.000 101.618,194.000 98.326 C 193.999 95.026,189.745 87.086,186.970 85.207 C 181.888 81.764,176.248 81.181,170.681 83.521 M181.536 84.377 C 185.698 85.849,187.193 86.981,188.831 89.896 C 189.542 91.163,190.349 92.470,190.623 92.800 C 191.368 93.695,192.400 97.518,192.400 99.379 C 192.400 102.299,195.040 105.730,199.135 108.131 C 200.381 108.861,202.390 110.210,203.600 111.128 C 204.810 112.046,206.011 112.797,206.268 112.798 C 206.526 112.799,207.998 113.957,209.539 115.372 C 211.080 116.786,212.850 118.266,213.471 118.660 C 214.092 119.054,215.422 120.057,216.426 120.888 C 218.918 122.952,220.333 122.935,222.428 120.819 C 225.934 117.277,237.223 117.646,240.069 121.394 C 243.458 125.857,246.150 125.760,251.200 120.996 C 252.190 120.062,253.982 118.815,255.182 118.224 C 256.382 117.634,258.092 116.487,258.982 115.675 C 259.872 114.863,261.829 113.486,263.332 112.613 C 267.213 110.360,267.829 109.625,268.407 106.565 C 269.074 103.027,271.501 101.645,275.013 102.804 C 277.749 103.707,278.561 108.114,276.430 110.494 L 275.260 111.800 271.753 111.692 L 268.247 111.584 266.623 113.136 C 265.731 113.990,263.560 115.464,261.800 116.411 C 260.040 117.359,257.790 118.799,256.800 119.610 C 255.810 120.422,254.370 121.302,253.600 121.566 C 252.830 121.831,251.570 122.487,250.800 123.025 C 250.030 123.563,248.733 124.450,247.917 124.996 C 245.799 126.413,245.576 127.071,245.431 132.311 C 245.335 135.780,245.080 137.647,244.450 139.487 C 243.983 140.855,243.600 142.331,243.600 142.767 C 243.600 144.626,248.929 150.600,253.283 153.622 C 254.539 154.494,256.123 156.015,256.802 157.003 C 257.482 157.992,258.170 158.800,258.330 158.800 C 258.490 158.800,259.600 159.535,260.796 160.434 C 262.748 161.900,263.136 162.043,264.585 161.824 C 265.473 161.689,267.777 161.427,269.703 161.242 C 273.680 160.859,275.414 159.941,277.961 156.873 C 278.752 155.919,279.974 154.896,280.676 154.600 C 281.378 154.304,282.728 153.347,283.676 152.475 C 284.624 151.603,286.067 150.612,286.883 150.273 C 290.964 148.574,293.156 144.805,292.398 140.790 C 290.810 132.371,295.345 126.699,303.681 126.678 C 311.553 126.659,314.868 130.158,315.132 138.768 L 315.272 143.336 317.336 145.699 C 318.471 146.998,320.120 148.489,321.000 149.011 C 322.871 150.120,327.498 153.629,331.429 156.919 C 335.413 160.253,337.748 161.314,340.347 160.969 C 345.375 160.302,348.329 165.645,345.390 170.088 C 342.368 174.653,335.653 172.027,335.609 166.262 C 335.597 164.708,334.250 162.939,332.397 162.044 C 330.764 161.255,327.340 158.482,324.633 155.756 C 323.735 154.852,322.280 153.685,321.400 153.163 C 320.520 152.641,319.170 151.648,318.400 150.957 C 314.493 147.451,312.508 146.912,309.200 148.459 C 306.668 149.644,301.980 149.902,299.600 148.987 C 296.058 147.626,294.420 147.735,292.393 149.469 C 291.407 150.313,289.579 151.690,288.331 152.529 C 287.083 153.368,285.043 154.947,283.797 156.036 C 282.552 157.126,280.783 158.393,279.866 158.851 C 271.600 162.986,274.570 172.555,285.356 176.540 C 286.588 176.996,288.881 178.417,294.103 181.964 C 305.862 189.950,307.306 190.488,310.193 187.953 C 317.071 181.914,331.521 185.595,334.197 194.067 C 337.772 205.382,331.675 214.737,320.607 214.921 C 310.889 215.082,304.851 209.331,304.422 199.507 L 304.200 194.413 301.600 192.021 C 300.170 190.706,297.821 189.018,296.380 188.271 C 294.939 187.525,292.869 186.280,291.780 185.505 C 290.691 184.730,289.051 183.719,288.136 183.258 C 287.221 182.798,285.626 181.688,284.592 180.793 C 283.558 179.898,281.516 178.534,280.056 177.763 C 278.595 176.992,276.699 175.937,275.842 175.419 C 273.332 173.902,264.290 174.274,261.592 176.005 C 260.568 176.662,259.427 177.200,259.057 177.200 C 257.999 177.200,251.966 180.187,250.234 181.569 C 249.372 182.256,248.202 182.928,247.634 183.062 C 245.818 183.491,235.386 188.745,232.137 190.868 C 230.412 191.995,228.384 193.088,227.630 193.297 C 226.877 193.506,225.105 194.378,223.693 195.236 C 222.281 196.094,220.328 197.148,219.353 197.580 C 218.378 198.011,216.009 199.335,214.090 200.523 C 212.170 201.711,209.838 203.071,208.908 203.545 C 206.420 204.814,205.772 206.312,206.350 209.452 C 207.747 217.029,200.352 224.800,191.745 224.800 C 186.903 224.800,179.200 221.008,179.200 218.624 C 179.200 218.343,178.660 217.101,178.000 215.864 C 175.976 212.071,176.211 208.449,178.827 203.125 C 180.550 199.619,180.818 198.768,180.615 197.456 C 180.362 195.820,174.852 184.755,173.616 183.400 C 173.215 182.960,172.029 180.980,170.980 179.000 C 169.932 177.020,168.690 174.860,168.220 174.200 C 167.750 173.540,166.576 171.650,165.610 170.000 C 163.186 165.859,163.079 165.759,159.090 163.905 C 155.017 162.013,154.400 161.216,154.400 157.846 C 154.400 154.300,151.861 151.318,146.082 148.075 C 145.136 147.545,143.876 146.495,143.282 145.742 C 142.687 144.989,141.402 143.902,140.428 143.327 C 139.453 142.752,137.216 140.936,135.458 139.291 C 133.699 137.646,131.690 136.062,130.993 135.771 C 130.296 135.480,128.973 134.613,128.054 133.845 C 125.709 131.886,125.164 131.802,122.744 133.028 C 117.428 135.722,117.626 134.984,118.027 150.649 C 118.418 165.922,118.177 165.075,122.781 167.400 C 128.441 170.258,131.246 173.250,132.245 177.496 C 135.877 192.927,118.483 203.507,106.814 192.965 C 105.007 191.333,103.292 191.179,101.200 192.461 C 100.430 192.933,98.088 193.903,95.995 194.617 C 93.903 195.331,91.563 196.279,90.795 196.725 C 90.028 197.171,88.590 197.743,87.600 197.998 C 86.610 198.252,85.105 198.912,84.256 199.465 C 82.724 200.462,79.029 202.120,74.800 203.707 C 72.335 204.632,70.001 206.194,69.998 206.920 C 69.972 212.492,61.660 216.087,57.417 212.362 C 50.739 206.498,58.275 195.575,65.800 200.210 C 67.906 201.507,67.662 201.552,73.298 198.850 C 75.994 197.557,79.247 196.194,80.527 195.821 C 81.807 195.447,84.867 194.106,87.327 192.839 C 89.787 191.572,92.340 190.406,93.000 190.249 C 100.154 188.543,102.000 186.700,102.000 181.262 C 102.000 176.601,101.821 176.319,97.479 174.152 C 95.896 173.361,93.680 172.027,92.556 171.186 C 91.432 170.346,89.315 169.116,87.852 168.453 C 86.388 167.789,84.158 166.437,82.896 165.448 C 81.633 164.458,79.430 163.124,78.000 162.483 C 76.570 161.842,74.704 160.844,73.853 160.265 C 71.518 158.675,70.136 158.426,67.112 159.048 C 60.016 160.507,54.669 155.409,57.413 149.800 C 61.262 141.931,69.526 142.598,71.629 150.948 C 72.085 152.761,72.343 153.061,75.493 155.434 C 77.088 156.635,82.723 160.000,83.139 160.000 C 83.333 160.000,83.939 160.352,84.485 160.781 C 85.032 161.211,87.455 162.556,89.870 163.770 C 92.286 164.984,94.968 166.541,95.831 167.230 C 99.883 170.465,105.283 172.349,106.451 170.935 C 106.753 170.570,108.170 169.519,109.600 168.600 C 113.561 166.057,113.387 166.965,112.949 151.032 C 112.554 136.654,112.398 135.600,110.668 135.600 C 109.977 135.600,103.853 132.354,102.897 131.480 C 97.282 126.349,97.165 114.069,102.684 109.109 C 106.117 106.024,113.940 104.259,117.513 105.763 C 118.868 106.333,120.220 106.800,120.519 106.800 C 124.968 106.800,130.307 117.826,128.593 123.474 C 127.689 126.454,127.811 127.074,129.548 128.304 C 130.399 128.907,131.434 129.873,131.848 130.452 C 132.721 131.672,138.628 136.484,140.340 137.369 C 140.981 137.700,142.278 138.714,143.223 139.622 C 144.168 140.530,146.235 142.230,147.817 143.400 C 149.399 144.570,151.078 146.067,151.548 146.726 C 154.902 151.438,161.225 151.642,162.420 147.079 C 162.662 146.155,163.048 144.680,163.278 143.800 C 163.507 142.920,164.016 140.490,164.408 138.400 C 164.799 136.310,165.483 133.700,165.926 132.600 C 168.826 125.407,170.272 120.301,170.626 116.017 C 170.902 112.662,170.447 111.830,167.416 110.157 C 162.030 107.182,160.465 97.746,164.155 90.496 C 166.998 84.912,175.040 82.080,181.536 84.377 M189.600 107.480 C 189.270 107.599,188.370 108.289,187.600 109.013 C 185.480 111.006,182.093 112.848,179.238 113.560 C 176.017 114.365,175.443 115.102,174.386 119.800 C 172.961 126.129,172.516 127.728,171.212 131.200 C 169.577 135.557,168.609 139.110,167.564 144.600 C 167.104 147.020,166.634 149.487,166.520 150.083 C 166.389 150.771,166.609 151.647,167.120 152.483 C 168.663 155.002,168.926 156.954,168.162 160.197 C 167.348 163.649,168.115 166.534,170.761 169.965 C 171.539 170.974,173.031 173.510,174.076 175.600 C 175.122 177.690,176.326 180.030,176.754 180.800 C 177.181 181.570,177.951 183.177,178.465 184.372 C 178.979 185.567,180.254 187.613,181.297 188.920 C 182.341 190.227,183.380 191.984,183.607 192.826 C 184.363 195.633,185.417 196.065,190.769 195.762 C 196.092 195.462,196.840 195.049,198.687 191.400 C 199.243 190.300,200.282 188.590,200.996 187.600 C 201.709 186.610,202.522 185.080,202.802 184.200 C 203.082 183.320,203.634 182.139,204.029 181.576 C 204.423 181.013,205.568 178.828,206.572 176.722 C 207.577 174.615,209.066 171.926,209.881 170.746 C 210.696 169.566,211.783 167.448,212.296 166.041 C 212.810 164.633,213.560 163.013,213.964 162.441 C 215.036 160.919,216.643 157.583,216.968 156.200 C 217.123 155.540,218.039 153.978,219.002 152.729 C 223.313 147.141,223.444 145.394,219.828 141.724 C 216.791 138.642,216.594 137.978,216.714 131.200 C 216.817 125.409,216.598 125.012,211.341 121.431 C 209.173 119.955,206.464 117.994,205.321 117.074 C 198.920 111.921,191.915 107.174,190.800 107.232 C 190.470 107.249,189.930 107.361,189.600 107.480 M194.203 110.802 C 195.947 111.903,198.100 113.485,198.987 114.317 C 199.874 115.149,201.500 116.442,202.600 117.192 C 203.700 117.941,205.500 119.299,206.600 120.211 C 207.700 121.122,209.802 122.634,211.272 123.571 C 214.586 125.685,214.541 125.579,214.598 131.400 C 214.658 137.485,215.338 139.737,217.969 142.559 C 221.001 145.812,220.959 146.899,217.621 151.589 C 216.599 153.025,215.263 155.460,214.653 157.000 C 214.044 158.540,213.087 160.469,212.528 161.286 C 211.969 162.103,211.090 163.933,210.574 165.352 C 210.059 166.772,208.853 169.164,207.894 170.667 C 206.934 172.170,204.922 175.920,203.420 179.000 C 201.919 182.080,200.298 185.140,199.817 185.800 C 199.337 186.460,198.256 188.402,197.416 190.116 C 195.582 193.859,195.541 193.884,191.000 194.039 C 186.422 194.195,185.870 193.986,184.792 191.694 C 184.307 190.663,183.138 188.825,182.194 187.609 C 181.249 186.394,179.910 184.054,179.217 182.408 C 178.524 180.762,177.703 179.134,177.391 178.790 C 177.080 178.447,176.106 176.629,175.226 174.751 C 174.346 172.873,172.922 170.451,172.062 169.368 C 169.938 166.694,168.901 163.375,169.532 161.269 C 170.377 158.448,170.131 154.949,168.932 152.746 C 167.765 150.602,167.793 150.011,169.402 142.800 C 170.778 136.637,171.185 135.199,172.571 131.600 C 174.106 127.613,175.430 122.875,176.024 119.245 C 176.469 116.524,177.187 115.740,179.970 114.943 C 182.625 114.182,186.591 112.046,188.848 110.160 C 190.865 108.475,190.436 108.423,194.203 110.802 M237.668 146.066 C 236.602 146.749,235.423 146.976,231.763 147.202 C 226.184 147.548,224.357 149.090,223.031 154.576 C 222.875 155.222,222.420 156.212,222.020 156.776 C 221.620 157.339,220.477 159.510,219.480 161.600 C 218.483 163.690,217.174 166.120,216.571 167.000 C 215.969 167.880,214.948 169.770,214.304 171.200 C 213.660 172.630,212.248 175.561,211.167 177.713 C 210.085 179.865,209.200 181.906,209.200 182.248 C 209.200 182.590,208.310 184.159,207.222 185.735 C 206.134 187.311,204.776 189.680,204.205 191.000 C 203.635 192.320,202.814 194.120,202.383 195.000 C 199.941 199.977,202.934 200.890,210.406 197.446 C 214.936 195.358,216.347 194.592,220.175 192.140 C 220.913 191.667,221.941 191.154,222.459 191.000 C 222.976 190.845,224.745 190.003,226.389 189.128 C 228.033 188.253,230.954 186.921,232.881 186.168 C 234.808 185.415,237.283 184.119,238.380 183.289 C 239.478 182.458,241.777 181.180,243.488 180.449 C 245.200 179.718,247.140 178.716,247.800 178.222 C 248.460 177.729,250.519 176.642,252.375 175.806 C 259.231 172.721,262.336 169.289,262.047 165.113 C 261.995 164.359,256.101 158.502,254.583 157.696 C 254.060 157.418,253.094 156.409,252.435 155.452 C 247.566 148.374,240.790 144.068,237.668 146.066 M242.805 149.058 C 245.407 150.787,249.702 154.868,250.854 156.706 C 251.304 157.424,252.431 158.533,253.359 159.172 C 258.706 162.851,261.212 166.797,259.500 168.845 C 258.303 170.278,254.299 172.859,250.621 174.569 C 248.432 175.587,246.362 176.662,246.021 176.959 C 245.679 177.256,244.680 177.726,243.800 178.004 C 241.400 178.761,239.230 179.916,236.974 181.637 C 235.859 182.488,234.184 183.453,233.250 183.782 C 230.870 184.622,219.847 190.125,217.200 191.795 C 211.649 195.297,205.139 198.137,204.214 197.460 C 203.369 196.841,206.029 190.209,208.420 186.973 C 209.328 185.744,210.592 183.473,211.230 181.927 C 211.867 180.381,212.945 178.144,213.625 176.956 C 214.305 175.768,215.290 173.702,215.814 172.364 C 216.338 171.027,217.389 168.996,218.149 167.851 C 218.909 166.706,220.357 164.083,221.368 162.023 C 222.378 159.962,223.365 158.079,223.560 157.838 C 223.756 157.597,224.507 155.898,225.229 154.062 C 226.820 150.019,227.192 149.761,231.862 149.454 C 233.987 149.315,236.337 148.893,237.462 148.448 C 240.139 147.390,240.326 147.411,242.805 149.058 M30.600 238.462 C 23.387 243.287,28.658 253.900,37.134 251.618 C 40.599 250.685,42.916 247.639,42.884 244.058 C 42.833 238.382,35.627 235.100,30.600 238.462 M38.726 239.592 C 40.891 241.161,41.709 242.480,41.709 244.404 C 41.709 249.968,32.828 252.647,29.759 248.009 C 25.892 242.166,33.029 235.466,38.726 239.592 M176.617 240.946 C 175.962 241.602,175.591 242.555,175.411 244.046 C 175.029 247.212,175.340 293.276,175.748 294.115 C 177.284 297.265,188.203 296.766,189.003 293.510 C 189.705 290.653,188.993 241.676,188.238 240.842 C 187.012 239.488,177.995 239.569,176.617 240.946 M187.371 242.229 C 188.356 243.213,188.324 292.579,187.338 293.669 C 186.064 295.076,178.140 294.589,177.106 293.040 C 176.299 291.831,176.773 243.227,177.600 242.400 C 178.671 241.329,186.337 241.194,187.371 242.229 M103.342 246.253 C 101.608 246.640,101.012 247.863,100.859 251.341 C 100.693 255.118,100.528 255.413,98.399 255.754 C 96.032 256.132,95.440 257.302,95.418 261.641 C 95.397 265.779,95.762 266.373,98.713 267.002 L 100.600 267.404 100.853 276.402 C 101.178 287.991,101.443 288.777,106.602 293.459 C 109.601 296.180,117.605 297.264,122.549 295.617 C 127.122 294.095,127.620 293.005,125.647 288.833 C 123.923 285.188,123.908 285.177,120.617 285.241 C 115.224 285.345,114.713 284.398,114.878 274.600 L 115.000 267.400 118.834 267.150 C 124.621 266.771,125.063 266.265,124.732 260.395 C 124.506 256.393,123.875 255.844,119.289 255.659 C 114.985 255.485,114.800 255.343,114.800 252.211 C 114.800 249.200,114.210 247.341,113.058 246.723 C 112.186 246.254,104.908 245.902,103.342 246.253 M111.297 248.020 C 112.983 248.489,113.089 248.747,113.301 252.905 C 113.490 256.614,113.882 256.942,118.462 257.222 C 122.931 257.494,123.200 257.755,123.200 261.827 C 123.200 265.527,122.967 265.717,118.120 265.988 C 112.928 266.279,113.118 265.917,113.275 275.200 C 113.439 284.920,114.565 286.949,119.710 286.794 C 123.222 286.689,123.144 286.650,124.205 289.050 C 125.790 292.635,125.565 293.197,122.151 294.167 C 115.417 296.080,109.235 294.609,105.437 290.192 C 102.489 286.762,102.297 285.943,102.031 275.685 C 101.777 265.899,101.887 266.276,99.157 265.840 C 95.575 265.267,95.971 257.200,99.582 257.200 C 101.246 257.200,102.000 255.836,102.000 252.826 C 102.000 249.640,102.446 248.147,103.477 247.880 C 104.868 247.520,109.813 247.608,111.297 248.020 M29.746 255.668 C 28.066 256.481,28.000 257.247,28.000 275.797 L 28.000 293.555 28.964 294.678 C 30.427 296.380,38.584 296.652,40.184 295.052 L 41.200 294.036 41.200 275.447 L 41.200 256.858 40.146 256.029 C 38.964 255.099,31.459 254.838,29.746 255.668 M51.386 255.564 C 49.365 256.425,49.400 256.084,49.400 274.961 C 49.400 297.419,48.914 296.000,56.606 296.000 C 63.519 296.000,63.600 295.864,63.600 284.208 C 63.600 270.491,65.128 267.126,71.379 267.081 C 77.834 267.034,78.885 269.304,79.184 283.936 C 79.447 296.753,79.067 296.000,85.264 296.000 C 92.409 296.000,92.400 296.016,92.400 282.834 C 92.400 269.640,91.588 264.475,89.151 262.166 C 88.474 261.525,87.416 260.273,86.799 259.385 C 86.156 258.459,84.766 257.264,83.539 256.585 L 81.400 255.400 74.400 255.400 C 67.915 255.400,67.274 255.466,65.688 256.300 C 64.746 256.795,63.768 257.200,63.513 257.200 C 63.259 257.200,62.621 256.795,62.095 256.300 C 61.058 255.325,53.212 254.785,51.386 255.564 M141.094 255.617 C 138.450 256.272,136.666 257.449,134.000 260.298 C 131.508 262.961,130.975 263.669,128.578 267.511 C 126.150 271.404,126.327 280.253,128.911 284.146 C 129.677 285.298,130.668 286.952,131.114 287.821 C 132.596 290.706,138.179 294.767,140.698 294.791 C 141.193 294.796,142.723 295.193,144.098 295.674 C 153.249 298.871,171.268 292.138,165.771 287.576 C 165.425 287.289,164.803 286.389,164.388 285.577 C 162.487 281.850,161.127 281.488,156.958 283.598 C 151.583 286.318,147.141 285.846,143.277 282.144 C 140.389 279.377,140.194 279.425,155.292 279.200 C 171.654 278.956,170.577 279.358,170.305 273.600 C 169.992 266.975,165.074 259.365,159.260 256.510 C 156.810 255.307,144.738 254.713,141.094 255.617 M205.200 255.566 C 192.638 259.735,190.467 275.419,202.019 278.548 C 203.439 278.933,205.267 279.502,206.082 279.813 C 206.896 280.124,208.760 280.570,210.223 280.804 C 214.434 281.476,217.788 283.409,216.804 284.596 C 215.212 286.513,207.785 286.157,203.492 283.957 C 199.106 281.710,197.562 282.300,195.338 287.074 C 193.211 291.641,193.994 293.290,198.800 294.361 C 211.318 297.152,211.500 297.160,219.200 295.331 C 223.976 294.196,224.626 293.856,227.414 291.037 C 230.262 288.157,230.385 287.951,230.808 285.350 C 232.071 277.591,226.861 272.113,217.393 271.246 C 210.201 270.587,206.489 268.008,210.200 266.247 C 212.977 264.930,214.753 264.964,219.406 266.421 C 224.864 268.130,225.247 268.012,227.320 263.995 C 229.868 259.056,229.594 258.051,225.224 256.319 C 222.839 255.374,207.516 254.798,205.200 255.566 M237.358 255.754 C 235.596 256.546,235.611 256.366,235.605 275.878 L 235.600 293.555 236.564 294.678 C 237.886 296.215,245.914 296.645,247.616 295.269 L 248.600 294.473 248.811 283.936 C 249.111 269.001,250.840 266.109,258.897 267.075 C 263.176 267.588,263.633 269.033,263.952 283.090 C 264.260 296.602,263.811 295.735,270.606 295.934 L 275.193 296.069 276.396 294.865 L 277.600 293.662 277.600 283.158 C 277.600 264.922,276.139 260.177,269.447 256.679 L 267.000 255.400 260.000 255.400 C 253.655 255.400,252.824 255.481,251.116 256.270 L 249.232 257.141 248.127 256.270 C 246.725 255.166,239.443 254.817,237.358 255.754 M292.908 255.602 C 286.780 256.882,283.908 260.272,286.126 263.607 C 286.636 264.373,287.290 265.592,287.581 266.315 C 288.438 268.448,290.772 269.056,293.228 267.786 C 298.890 264.858,308.062 266.327,307.531 270.077 C 307.402 270.986,307.300 271.004,300.600 271.288 C 291.987 271.654,290.260 272.223,286.298 276.000 C 278.093 283.824,284.280 294.894,297.800 296.578 C 299.764 296.823,300.287 296.721,306.109 294.961 C 308.398 294.270,308.433 294.271,310.028 295.167 C 312.361 296.479,319.484 296.296,320.890 294.889 C 322.494 293.284,322.122 271.177,320.376 264.368 C 319.758 261.958,316.127 257.735,313.600 256.487 C 311.232 255.317,297.155 254.715,292.908 255.602 M331.386 255.564 C 329.345 256.433,329.409 255.686,329.271 280.361 C 329.091 312.664,328.545 310.400,336.512 310.400 C 343.491 310.400,343.356 310.567,343.531 301.669 C 343.603 298.001,343.794 294.863,343.956 294.695 C 344.269 294.371,348.344 295.128,352.000 296.189 C 354.493 296.913,357.119 296.721,360.000 295.606 C 360.990 295.223,362.454 294.791,363.254 294.645 C 366.328 294.086,371.628 288.987,372.409 285.836 C 372.632 284.936,373.197 282.855,373.666 281.212 C 374.745 277.425,374.758 273.791,373.705 270.200 C 373.254 268.660,372.686 266.661,372.444 265.758 C 371.668 262.870,366.591 257.522,363.519 256.356 C 359.749 254.925,347.921 254.908,345.258 256.330 L 343.515 257.260 342.526 256.330 C 341.460 255.327,333.266 254.764,331.386 255.564 M39.200 257.200 C 39.976 257.976,40.000 258.533,40.000 275.469 C 40.000 296.190,40.478 294.400,34.938 294.400 C 29.115 294.400,29.600 296.089,29.600 275.826 C 29.600 258.693,29.728 257.030,31.077 256.680 C 33.345 256.092,38.417 256.417,39.200 257.200 M59.539 256.648 C 60.377 256.815,61.035 257.332,61.575 258.248 C 62.546 259.893,62.698 259.901,65.015 258.431 C 70.429 254.998,82.804 255.970,85.598 260.049 C 86.108 260.792,87.222 262.133,88.075 263.028 C 90.186 265.244,90.393 266.652,90.663 280.600 C 90.942 295.001,91.165 294.400,85.545 294.400 C 80.046 294.400,80.404 295.031,80.378 285.286 C 80.335 268.770,79.059 265.865,71.849 265.868 C 63.946 265.871,62.398 268.717,62.033 283.915 C 61.841 291.938,61.695 293.697,61.200 294.009 C 59.552 295.049,51.961 294.320,51.106 293.040 C 50.622 292.316,50.737 258.865,51.226 257.951 C 51.976 256.549,55.939 255.928,59.539 256.648 M157.800 257.410 C 161.549 258.773,167.662 265.925,168.366 269.773 C 169.911 278.221,170.293 278.000,154.140 278.000 C 139.273 278.000,138.980 278.068,140.580 281.160 C 143.274 286.370,151.728 288.274,157.471 284.963 C 160.270 283.350,161.302 283.605,163.185 286.378 C 165.416 289.664,165.108 290.822,161.518 292.642 C 153.504 296.703,140.214 295.270,134.639 289.744 C 129.131 284.282,126.648 275.906,128.824 270.125 C 130.653 265.269,136.978 258.460,140.614 257.433 C 141.927 257.062,143.180 256.683,143.400 256.590 C 144.600 256.082,155.920 256.727,157.800 257.410 M224.600 257.651 C 228.001 258.804,228.190 259.342,226.361 262.665 C 224.351 266.315,223.375 266.718,220.317 265.158 C 214.580 262.231,203.469 265.567,207.283 269.071 C 209.114 270.753,212.120 271.924,215.800 272.389 C 221.919 273.161,224.023 273.961,226.732 276.547 C 233.147 282.670,228.774 292.251,218.775 293.984 C 217.359 294.229,215.261 294.630,214.114 294.875 C 211.011 295.538,199.819 293.700,197.013 292.066 C 195.366 291.107,195.343 290.233,196.884 287.193 C 198.630 283.752,199.479 283.442,202.658 285.088 C 208.605 288.167,215.833 288.183,218.119 285.121 C 219.895 282.742,217.477 281.126,208.981 279.015 C 205.772 278.218,202.214 277.150,201.073 276.641 C 191.864 272.533,195.554 259.110,206.530 256.796 C 210.011 256.062,221.518 256.606,224.600 257.651 M247.096 257.700 C 248.513 259.058,248.929 259.063,251.783 257.756 C 257.532 255.124,267.945 256.204,271.400 259.791 C 275.647 264.201,276.531 268.589,276.321 284.227 C 276.176 295.025,276.503 294.400,271.000 294.400 C 265.460 294.400,265.843 295.209,265.569 282.933 C 265.252 268.728,264.543 266.746,259.497 265.948 C 254.151 265.103,251.100 266.485,248.955 270.724 L 247.803 273.000 247.657 283.108 C 247.484 295.133,247.831 294.400,242.311 294.400 C 236.749 294.400,237.200 296.059,237.200 275.582 L 237.200 258.364 238.222 257.342 C 239.755 255.808,245.358 256.034,247.096 257.700 M310.430 257.131 C 314.505 258.107,317.986 261.222,319.168 264.952 C 320.629 269.562,320.971 292.229,319.600 293.600 C 318.230 294.970,311.835 294.775,310.312 293.316 C 309.255 292.303,309.096 292.266,307.890 292.757 C 294.670 298.142,282.174 292.125,284.391 281.442 C 285.551 275.856,290.421 273.356,301.187 272.820 C 307.763 272.493,308.217 272.419,308.912 271.562 C 310.296 269.852,308.945 267.177,306.077 265.947 C 301.576 264.018,300.199 264.053,293.081 266.277 C 290.311 267.143,289.580 266.811,287.982 263.961 C 286.414 261.164,286.406 260.565,287.922 259.301 C 291.142 256.617,303.360 255.439,310.430 257.131 M341.426 257.800 C 342.771 259.226,343.734 259.554,344.228 258.755 C 346.085 255.750,361.463 255.707,365.400 258.696 C 375.789 266.585,375.047 287.576,364.200 292.650 C 358.124 295.493,353.272 295.606,345.696 293.083 C 342.183 291.913,342.225 291.829,342.073 300.317 C 341.914 309.187,342.165 308.800,336.567 308.800 C 330.202 308.800,330.800 311.503,330.800 282.720 C 330.800 266.522,330.938 258.489,331.226 257.951 C 332.387 255.782,339.425 255.678,341.426 257.800 M145.371 264.758 C 141.975 266.300,139.252 269.925,140.274 271.545 C 141.280 273.139,156.692 273.384,157.832 271.824 C 160.734 267.854,150.869 262.260,145.371 264.758 M153.259 266.808 C 159.367 270.436,158.568 271.252,149.049 271.109 C 140.970 270.987,140.608 270.840,142.590 268.484 C 145.454 265.081,149.329 264.472,153.259 266.808 M349.000 265.650 C 341.728 267.996,339.914 279.432,346.069 284.127 C 354.855 290.829,364.972 281.687,361.087 270.557 C 359.648 266.435,353.857 264.084,349.000 265.650 M356.800 267.934 C 359.519 269.252,360.126 270.642,360.144 275.600 C 360.184 286.296,347.498 288.908,344.438 278.834 C 341.742 269.960,348.566 263.943,356.800 267.934 M298.983 278.752 C 291.178 282.297,297.143 291.109,305.098 287.785 C 308.936 286.181,311.223 280.382,308.711 278.623 C 307.386 277.695,301.128 277.778,298.983 278.752 M307.520 279.680 C 308.981 281.141,307.405 285.078,304.806 286.459 C 300.323 288.842,294.243 284.614,297.487 281.370 C 299.380 279.477,306.173 278.333,307.520 279.680 " stroke="none" fill="#a1a4c0" fill-rule="evenodd"></path></g></svg>